<?xml version='1.0' encoding='UTF-8' standalone='no'?>
<!-- Created with Fritzing (http://www.fritzing.org/) -->
<svg xmlns:svg='http://www.w3.org/2000/svg' xmlns='http://www.w3.org/2000/svg' version='1.2' baseProfile='tiny' x='0in' y='0in' width='2.79528in' height='2.13255in' viewBox='0 0 2795.28 2132.55' >
<g partID='57550'><g gorn="0.1" id="breadboard">
<g transform="matrix(1, 0, 0, 1, -4258.15, -3403.1)">
<g>
<g>
<g gorn="0.1.0.0.0" id="connectorTerminals">
<g transform="matrix(1.0511, 0, 0, 1.05301, 953.424, -275.276)">
<g>
<g>
<g gorn="0.1.0.0.0.0.0.0" id="connector11terminal">
<circle fill="rgb(219,219,219)" cx="4760.53" cy="4808.49" r="31.7633"/>
</g>
</g>
</g>
</g>
<g transform="matrix(1.0511, 0, 0, 1.05301, 953.424, -275.276)">
<g>
<g>
<g gorn="0.1.0.0.0.1.0.0" id="connector10terminal">
<circle fill="rgb(219,219,219)" cx="4665.59" cy="4808.49" r="31.7633"/>
</g>
</g>
</g>
</g>
<g transform="matrix(1.0511, 0, 0, 1.05301, 953.424, -275.276)">
<g>
<g>
<g gorn="0.1.0.0.0.2.0.0" id="connector9terminal">
<circle fill="rgb(219,219,219)" cx="4570.66" cy="4808.49" r="31.7633"/>
</g>
</g>
</g>
</g>
<g transform="matrix(1.0511, 0, 0, 1.05301, 953.424, -275.276)">
<g>
<g>
<g gorn="0.1.0.0.0.3.0.0" id="connector8terminal">
<circle fill="rgb(219,219,219)" cx="4475.72" cy="4808.49" r="31.7633"/>
</g>
</g>
</g>
</g>
<g transform="matrix(1.0511, 0, 0, 1.05301, 953.424, -275.276)">
<g>
<g>
<g gorn="0.1.0.0.0.4.0.0" id="connector7terminal">
<circle fill="rgb(219,219,219)" cx="4380.79" cy="4808.49" r="31.7633"/>
</g>
</g>
</g>
</g>
<g transform="matrix(1.0511, 0, 0, 1.05301, 953.424, -275.276)">
<g>
<g>
<g gorn="0.1.0.0.0.5.0.0" id="connector6terminal">
<circle fill="rgb(219,219,219)" cx="4285.86" cy="4808.49" r="31.7633"/>
</g>
</g>
</g>
</g>
<g transform="matrix(1.0511, 0, 0, 1.05301, 953.424, -275.276)">
<g>
<g>
<g gorn="0.1.0.0.0.6.0.0" id="connector5terminal">
<circle fill="rgb(219,219,219)" cx="4190.92" cy="4808.49" r="31.7633"/>
</g>
</g>
</g>
</g>
<g transform="matrix(1.0511, 0, 0, 1.05301, 953.424, -275.276)">
<g>
<g>
<g gorn="0.1.0.0.0.7.0.0" id="connector4terminal">
<circle fill="rgb(219,219,219)" cx="4095.99" cy="4808.49" r="31.7633"/>
</g>
</g>
</g>
</g>
<g transform="matrix(1.0511, 0, 0, 1.05301, 953.424, -275.276)">
<g>
<g>
<g gorn="0.1.0.0.0.8.0.0" id="connector3terminal">
<circle fill="rgb(219,219,219)" cx="4001.05" cy="4808.49" r="31.7633"/>
</g>
</g>
</g>
</g>
<g transform="matrix(1.0511, 0, 0, 1.05301, 953.424, -275.276)">
<g>
<g>
<g gorn="0.1.0.0.0.9.0.0" id="connector2terminal">
<circle fill="rgb(219,219,219)" cx="3906.12" cy="4808.49" r="31.7633"/>
</g>
</g>
</g>
</g>
<g transform="matrix(1.0511, 0, 0, 1.05301, 953.424, -275.276)">
<g>
<g>
<g gorn="0.1.0.0.0.10.0.0" id="connector1terminal">
<circle fill="rgb(219,219,219)" cx="3811.19" cy="4808.49" r="31.7633"/>
</g>
</g>
</g>
</g>
<g transform="matrix(1.0511, 0, 0, 1.05301, 953.424, -275.276)">
<g>
<g>
<g gorn="0.1.0.0.0.11.0.0" id="connector0terminal">
<circle fill="rgb(219,219,219)" cx="3716.25" cy="4808.49" r="31.7633"/>
</g>
</g>
</g>
</g>
</g>
</g>
</g>
</g>
<g transform="matrix(1, 0, 0, 1, -4258.15, -3403.1)">
<g>
<g>
<g gorn="0.1.1.0.0" id="connectors">
<g transform="matrix(1.0511, 0, 0, 1.05301, 953.424, -275.276)">
<g>
<g>
<g gorn="0.1.1.0.0.0.0.0" id="connector11pin">
<circle fill="rgb(219,219,219)" cx="4760.53" cy="4808.49" r="31.7633"/>
</g>
</g>
</g>
</g>
<g transform="matrix(1.0511, 0, 0, 1.05301, 953.424, -275.276)">
<g>
<g>
<g gorn="0.1.1.0.0.1.0.0" id="connector10pin">
<circle fill="rgb(219,219,219)" cx="4665.59" cy="4808.49" r="31.7633"/>
</g>
</g>
</g>
</g>
<g transform="matrix(1.0511, 0, 0, 1.05301, 953.424, -275.276)">
<g>
<g>
<g gorn="0.1.1.0.0.2.0.0" id="connector9pin">
<circle fill="rgb(219,219,219)" cx="4570.66" cy="4808.49" r="31.7633"/>
</g>
</g>
</g>
</g>
<g transform="matrix(1.0511, 0, 0, 1.05301, 953.424, -275.276)">
<g>
<g>
<g gorn="0.1.1.0.0.3.0.0" id="connector8pin">
<circle fill="rgb(219,219,219)" cx="4475.72" cy="4808.49" r="31.7633"/>
</g>
</g>
</g>
</g>
<g transform="matrix(1.0511, 0, 0, 1.05301, 953.424, -275.276)">
<g>
<g>
<g gorn="0.1.1.0.0.4.0.0" id="connector7pin">
<circle fill="rgb(219,219,219)" cx="4380.79" cy="4808.49" r="31.7633"/>
</g>
</g>
</g>
</g>
<g transform="matrix(1.0511, 0, 0, 1.05301, 953.424, -275.276)">
<g>
<g>
<g gorn="0.1.1.0.0.5.0.0" id="connector6pin">
<circle fill="rgb(219,219,219)" cx="4285.86" cy="4808.49" r="31.7633"/>
</g>
</g>
</g>
</g>
<g transform="matrix(1.0511, 0, 0, 1.05301, 953.424, -275.276)">
<g>
<g>
<g gorn="0.1.1.0.0.6.0.0" id="connector5pin">
<circle fill="rgb(219,219,219)" cx="4190.92" cy="4808.49" r="31.7633"/>
</g>
</g>
</g>
</g>
<g transform="matrix(1.0511, 0, 0, 1.05301, 953.424, -275.276)">
<g>
<g>
<g gorn="0.1.1.0.0.7.0.0" id="connector4pin">
<circle fill="rgb(219,219,219)" cx="4095.99" cy="4808.49" r="31.7633"/>
</g>
</g>
</g>
</g>
<g transform="matrix(1.0511, 0, 0, 1.05301, 953.424, -275.276)">
<g>
<g>
<g gorn="0.1.1.0.0.8.0.0" id="connector3pin">
<circle fill="rgb(219,219,219)" cx="4001.05" cy="4808.49" r="31.7633"/>
</g>
</g>
</g>
</g>
<g transform="matrix(1.0511, 0, 0, 1.05301, 953.424, -275.276)">
<g>
<g>
<g gorn="0.1.1.0.0.9.0.0" id="connector2pin">
<circle fill="rgb(219,219,219)" cx="3906.12" cy="4808.49" r="31.7633"/>
</g>
</g>
</g>
</g>
<g transform="matrix(1.0511, 0, 0, 1.05301, 953.424, -275.276)">
<g>
<g>
<g gorn="0.1.1.0.0.10.0.0" id="connector1pin">
<circle fill="rgb(219,219,219)" cx="3811.19" cy="4808.49" r="31.7633"/>
</g>
</g>
</g>
</g>
<g transform="matrix(1.0511, 0, 0, 1.05301, 953.424, -275.276)">
<g>
<g>
<g gorn="0.1.1.0.0.11.0.0" id="connector0pin">
<circle fill="rgb(219,219,219)" cx="3716.25" cy="4808.49" r="31.7633"/>
</g>
</g>
</g>
</g>
</g>
</g>
</g>
</g>
<g transform="matrix(1, 0, 0, 1, 424.25, 246.998)">
<g>
<g>
<g gorn="0.1.2.0.0" id="button">
<path d="M33.0686,-243.489C32.6863,-243.544,16.3497,-246.993,0,-246.993C-16.3497,-246.993,-32.6863,-243.544,-33.0686,-243.489C-35.1387,-238.308,-36.6023,-232.949,-37.4593,-227.411C-41.2962,-226.724,-45.1068,-225.941,-48.891,-225.047C-51.7126,-229.816,-55.0353,-234.186,-58.8458,-238.143C-60.3358,-237.745,-61.8125,-237.332,-63.2761,-236.906C-64.6869,-231.492,-65.4648,-225.982,-65.6231,-220.375C-69.3281,-219.166,-73.02,-217.874,-76.6591,-216.473C-80.0609,-220.815,-83.8978,-224.69,-88.1698,-228.098C-89.5939,-227.507,-91.0047,-226.889,-92.4155,-226.27C-93.1275,-220.705,-93.2066,-215.14,-92.666,-209.56C-96.1865,-207.87,-99.6806,-206.07,-103.109,-204.188C-107.025,-208.035,-111.323,-211.361,-115.991,-214.15C-117.322,-213.367,-118.641,-212.57,-119.96,-211.759C-119.973,-206.153,-119.353,-200.615,-118.114,-195.159C-121.397,-193.002,-124.627,-190.748,-127.805,-188.412C-132.169,-191.696,-136.837,-194.403,-141.807,-196.533C-143.034,-195.585,-144.247,-194.61,-145.447,-193.634C-144.761,-188.069,-143.456,-182.668,-141.544,-177.419C-144.537,-174.835,-147.451,-172.169,-150.312,-169.421C-155.045,-172.073,-160.016,-174.121,-165.211,-175.564C-166.306,-174.451,-167.387,-173.324,-168.455,-172.183C-167.07,-166.769,-165.106,-161.588,-162.561,-156.655C-165.198,-153.673,-167.756,-150.636,-170.235,-147.517C-175.272,-149.509,-180.453,-150.87,-185.794,-151.584C-186.73,-150.334,-187.666,-149.07,-188.576,-147.792C-186.532,-142.611,-183.934,-137.747,-180.783,-133.198C-183.025,-129.886,-185.187,-126.52,-187.257,-123.098C-192.492,-124.39,-197.805,-125.035,-203.185,-125.022C-203.963,-123.648,-204.728,-122.273,-205.479,-120.885C-202.803,-116.021,-199.612,-111.541,-195.92,-107.46C-197.726,-103.887,-199.453,-100.245,-201.075,-96.5765C-206.428,-97.1399,-211.768,-97.0574,-217.109,-96.3154C-217.702,-94.845,-218.295,-93.3747,-218.862,-91.8906C-215.592,-87.4383,-211.874,-83.4394,-207.707,-79.8941C-209.052,-76.1014,-210.292,-72.2537,-211.452,-68.3923C-216.832,-68.2274,-222.119,-67.4166,-227.314,-65.9463C-227.723,-64.421,-228.118,-62.8819,-228.501,-61.3291C-224.703,-57.3577,167.07,-166.769,168.455,-172.183C167.387,-173.324,166.306,-174.451,165.211,-175.564C160.016,-174.121,155.045,-172.073,150.312,-169.421C147.451,-172.169,144.537,-174.835,141.544,-177.419C143.456,-182.668,144.761,-188.069,145.447,-193.634C144.247,-194.61,143.034,-195.585,141.807,-196.533C136.837,-194.403,132.169,-191.696,127.805,-188.412C124.627,-190.748,121.397,-193.002,118.114,-195.159C119.353,-200.615,119.973,-206.153,119.96,-211.759C118.641,-212.57,117.322,-213.367,115.991,-214.15C111.323,-211.361,107.025,-208.035,103.109,-204.188C99.6806,-206.07,96.1865,-207.87,92.666,-209.56C93.2066,-215.14,93.1275,-220.705,92.4155,-226.27C91.0047,-226.889,89.5939,-227.507,88.1698,-228.098C83.8978,-224.69,80.0609,-220.815,76.6591,-216.473C73.02,-217.874,69.3281,-219.166,65.6231,-220.375C65.4648,-225.982,64.6869,-231.492,63.2761,-236.906C61.8125,-237.332,60.3358,-237.745,58.8458,-238.143C55.0353,-234.186,51.7126,-229.816,48.891,-225.047C45.1068,-225.941,41.2962,-226.724,37.4593,-227.411C36.6023,-232.949,35.1387,-238.308,33.0686,-243.489Z" stroke-width="11.1111" stroke="black"/>
</g>
</g>
</g>
</g>
<g transform="matrix(1, 0, 0, 1, -4258.15, -3403.1)">
<g>
<g>
<g gorn="0.1.3.0.0" id="outline">
<g transform="matrix(1, 0, 0, 1, 4157.72, 3324.7)">
<g>
<g>
<g>
<rect height="247.542" x="107.908" y="683.882" fill="rgb(219,219,219)" style="stroke-linecap:butt;stroke-linejoin:miter;" width="97.2545" stroke-width="11.1111" stroke="rgb(219,219,219)"/>
</g>
</g>
</g>
</g>
<g transform="matrix(1.12131, 0, 0, 1.03096, 4160.75, 3182.72)">
<g>
<g>
<g>
<rect height="135.919" x="574.337" y="1456.15" fill="rgb(48,48,48)" width="1080.24"/>
</g>
</g>
</g>
</g>
<g transform="matrix(1.0511, 0, 0, 1.05301, 4213.52, 3297.86)">
<g>
<g>
<g>
<path d="M2691.59,420.701C2691.59,416.318,2691.49,411.948,2691.28,407.605C2684.64,264.005,2569.28,148.039,2429.96,148.039L2429.9,148.025L393,148.025L393,148.039C265.973,148.039,158.856,244.451,135.914,370.311C132.934,386.663,131.365,403.51,131.365,420.701L131.365,420.605L131.365,1178.33C131.365,1327.91,249.465,1451,393,1451L393,1450.96L561.125,1450.96L635.925,1355.48L1637.58,1355.48L1712.29,1450.96L2429.9,1450.96L2429.96,1451C2573.49,1451,2691.59,1327.91,2691.59,1178.33L2691.53,1178.28L2691.53,420.605" fill="rgb(70,135,185)"/>
</g>
</g>
</g>
</g>
</g>
</g>
</g>
</g>
<g transform="matrix(1, 0, 0, 1, -4258.15, -3403.1)">
<g>
<g>
<g gorn="0.1.4.0.0" id="text">
<g transform="matrix(1.0511, 0, 0, 1.05301, 953.424, -648.038)">
<g>
<g>
<g>
<path d="M4658.41,5046.04L4632.77,5046.04" fill="rgb(0,132,132)" style="fill-rule:nonzero;stroke-miterlimit:4;" stroke-width="6.33333" stroke="white" fill-opacity="0"/>
</g>
</g>
</g>
</g>
<g transform="matrix(1.0511, 0, 0, 1.05301, 953.424, -648.038)">
<g>
<g>
<g>
<path d="M4645.59,5046.04L4645.59,4999.23L4641.32,5005.97L4637.05,5010.42L4632.77,5012.59" fill="rgb(0,132,132)" style="fill-rule:nonzero;stroke-miterlimit:4;" stroke-width="6.33333" stroke="white" fill-opacity="0"/>
</g>
</g>
</g>
</g>
<g transform="matrix(1.0511, 0, 0, 1.05301, 953.424, -648.038)">
<g>
<g>
<g>
<path d="M4686.12,4999.23L4690.39,4999.23L4694.67,5001.52L4696.76,5003.69L4698.94,5008.14L4701.03,5017.04L4701.03,5028.23L4698.94,5037.13L4696.76,5041.59L4694.67,5043.76L4690.39,5046.04L4686.12,5046.04L4681.85,5043.76L4679.67,5041.59L4677.58,5037.13L4675.4,5028.23L4675.4,5017.04L4677.58,5008.14L4679.67,5003.69L4681.85,5001.52L4686.12,4999.23" fill="rgb(0,132,132)" style="fill-rule:nonzero;stroke-miterlimit:4;" stroke-width="6.33333" stroke="white" fill-opacity="0"/>
</g>
</g>
</g>
</g>
<g transform="matrix(1.0511, 0, 0, 1.05301, 953.424, -648.038)">
<g>
<g>
<g>
<path d="M4753.34,5046.04L4727.71,5046.04" fill="rgb(0,132,132)" style="fill-rule:nonzero;stroke-miterlimit:4;" stroke-width="6.33333" stroke="white" fill-opacity="0"/>
</g>
</g>
</g>
</g>
<g transform="matrix(1.0511, 0, 0, 1.05301, 953.424, -648.038)">
<g>
<g>
<g>
<path d="M4740.52,5046.04L4740.52,4999.23L4736.25,5005.97L4731.98,5010.42L4727.71,5012.59" fill="rgb(0,132,132)" style="fill-rule:nonzero;stroke-miterlimit:4;" stroke-width="6.33333" stroke="white" fill-opacity="0"/>
</g>
</g>
</g>
</g>
<g transform="matrix(1.0511, 0, 0, 1.05301, 953.424, -648.038)">
<g>
<g>
<g>
<path d="M4795.97,5046.04L4770.34,5046.04" fill="rgb(0,132,132)" style="fill-rule:nonzero;stroke-miterlimit:4;" stroke-width="6.33333" stroke="white" fill-opacity="0"/>
</g>
</g>
</g>
</g>
<g transform="matrix(1.0511, 0, 0, 1.05301, 953.424, -648.038)">
<g>
<g>
<g>
<path d="M4783.15,5046.04L4783.15,4999.23L4778.88,5005.97L4774.61,5010.42L4770.34,5012.59" fill="rgb(0,132,132)" style="fill-rule:nonzero;stroke-miterlimit:4;" stroke-width="6.33333" stroke="white" fill-opacity="0"/>
</g>
</g>
</g>
</g>
<g transform="matrix(1.0511, 0, 0, 1.05301, 953.424, -648.038)">
<g>
<g>
<g>
<path d="M4563.47,5046.04L4572.02,5046.04L4576.2,5043.76L4578.37,5041.59L4582.64,5034.85L4584.74,5025.95L4584.74,5008.14L4582.64,5003.69L4580.47,5001.52L4576.2,4999.23L4567.74,4999.23L4563.47,5001.52L4561.28,5003.69L4559.2,5008.14L4559.2,5019.32L4561.28,5023.78L4563.47,5025.95L4567.74,5028.23L4576.2,5028.23L4580.47,5025.95L4582.64,5023.78L4584.74,5019.32" fill="rgb(0,132,132)" style="fill-rule:nonzero;stroke-miterlimit:4;" stroke-width="6.33333" stroke="white" fill-opacity="0"/>
</g>
</g>
</g>
</g>
<g transform="matrix(1.0511, 0, 0, 1.05301, 953.424, -648.038)">
<g>
<g>
<g>
<path d="M4472.81,5019.32L4468.54,5017.04L4466.35,5014.87L4464.27,5010.42L4464.27,5008.14L4466.35,5003.69L4468.54,5001.52L4472.81,4999.23L4481.26,4999.23L4485.53,5001.52L4487.71,5003.69L4489.81,5008.14L4489.81,5010.42L4487.71,5014.87L4485.53,5017.04L4481.26,5019.32L4472.81,5019.32L4468.54,5021.5L4466.35,5023.78L4464.27,5028.23L4464.27,5037.13L4466.35,5041.59L4468.54,5043.76L4472.81,5046.04L4481.26,5046.04L4485.53,5043.76L4487.71,5041.59L4489.81,5037.13L4489.81,5028.23L4487.71,5023.78L4485.53,5021.5L4481.26,5019.32" fill="rgb(0,132,132)" style="fill-rule:nonzero;stroke-miterlimit:4;" stroke-width="6.33333" stroke="white" fill-opacity="0"/>
</g>
</g>
</g>
</g>
<g transform="matrix(1.0511, 0, 0, 1.05301, 953.424, -648.038)">
<g>
<g>
<g>
<path d="M4367.14,4999.23L4397.05,4999.23L4377.88,5046.04" fill="rgb(0,132,132)" style="fill-rule:nonzero;stroke-miterlimit:4;" stroke-width="6.33333" stroke="white" fill-opacity="0"/>
</g>
</g>
</g>
</g>
<g transform="matrix(1.0511, 0, 0, 1.05301, 953.424, -648.038)">
<g>
<g>
<g>
<path d="M4295.67,4999.23L4287.21,4999.23L4282.94,5001.52L4280.75,5003.69L4276.48,5010.42L4274.4,5019.32L4274.4,5037.13L4276.48,5041.59L4278.67,5043.76L4282.94,5046.04L4291.39,5046.04L4295.67,5043.76L4297.84,5041.59L4299.94,5037.13L4299.94,5025.95L4297.84,5021.5L4295.67,5019.32L4291.39,5017.04L4282.94,5017.04L4278.67,5019.32L4276.48,5021.5L4274.4,5025.95" fill="rgb(0,132,132)" style="fill-rule:nonzero;stroke-miterlimit:4;" stroke-width="6.33333" stroke="white" fill-opacity="0"/>
</g>
</g>
</g>
</g>
<g transform="matrix(1.0511, 0, 0, 1.05301, 953.424, -648.038)">
<g>
<g>
<g>
<path d="M4202.91,4999.23L4181.55,4999.23L4179.46,5021.5L4181.55,5019.32L4185.82,5017.04L4196.46,5017.04L4200.73,5019.32L4202.91,5021.5L4205,5025.95L4205,5037.13L4202.91,5041.59L4200.73,5043.76L4196.46,5046.04L4185.82,5046.04L4181.55,5043.76L4179.46,5041.59" fill="rgb(0,132,132)" style="fill-rule:nonzero;stroke-miterlimit:4;" stroke-width="6.33333" stroke="white" fill-opacity="0"/>
</g>
</g>
</g>
</g>
<g transform="matrix(1.0511, 0, 0, 1.05301, 953.424, -648.038)">
<g>
<g>
<g>
<path d="M4105.8,5014.87L4105.8,5046.04" fill="rgb(0,132,132)" style="fill-rule:nonzero;stroke-miterlimit:4;" stroke-width="6.33333" stroke="white" fill-opacity="0"/>
</g>
</g>
</g>
</g>
<g transform="matrix(1.0511, 0, 0, 1.05301, 953.424, -648.038)">
<g>
<g>
<g>
<path d="M4095.16,4997.06L4084.53,5030.4L4112.25,5030.4" fill="rgb(0,132,132)" style="fill-rule:nonzero;stroke-miterlimit:4;" stroke-width="6.33333" stroke="white" fill-opacity="0"/>
</g>
</g>
</g>
</g>
<g transform="matrix(1.0511, 0, 0, 1.05301, 953.424, -648.038)">
<g>
<g>
<g>
<path d="M3987.41,4999.23L4015.14,4999.23L4000.22,5017.04L4006.59,5017.04L4010.86,5019.32L4013.04,5021.5L4015.14,5025.95L4015.14,5037.13L4013.04,5041.59L4010.86,5043.76L4006.59,5046.04L3993.87,5046.04L3989.6,5043.76L3987.41,5041.59" fill="rgb(0,132,132)" style="fill-rule:nonzero;stroke-miterlimit:4;" stroke-width="6.33333" stroke="white" fill-opacity="0"/>
</g>
</g>
</g>
</g>
<g transform="matrix(1.0511, 0, 0, 1.05301, 953.424, -648.038)">
<g>
<g>
<g>
<path d="M3894.66,5003.69L3896.75,5001.52L3901.02,4999.23L3911.66,4999.23L3915.93,5001.52L3918.11,5003.69L3920.2,5008.14L3920.2,5012.59L3918.11,5019.32L3892.47,5046.04L3920.2,5046.04" fill="rgb(0,132,132)" style="fill-rule:nonzero;stroke-miterlimit:4;" stroke-width="6.33333" stroke="white" fill-opacity="0"/>
</g>
</g>
</g>
</g>
<g transform="matrix(1.0511, 0, 0, 1.05301, 953.424, -648.038)">
<g>
<g>
<g>
<path d="M3825.27,5046.04L3799.73,5046.04" fill="rgb(0,132,132)" style="fill-rule:nonzero;stroke-miterlimit:4;" stroke-width="6.33333" stroke="white" fill-opacity="0"/>
</g>
</g>
</g>
</g>
<g transform="matrix(1.0511, 0, 0, 1.05301, 953.424, -648.038)">
<g>
<g>
<g>
<path d="M3812.54,5046.04L3812.54,4999.23L3808.27,5005.97L3804,5010.42L3799.73,5012.59" fill="rgb(0,132,132)" style="fill-rule:nonzero;stroke-miterlimit:4;" stroke-width="6.33333" stroke="white" fill-opacity="0"/>
</g>
</g>
</g>
</g>
<g transform="matrix(1.0511, 0, 0, 1.05301, 953.424, -648.038)">
<g>
<g>
<g>
<path d="M3715.42,4999.23L3719.69,4999.23L3723.97,5001.52L3726.06,5003.69L3728.24,5008.14L3730.33,5017.04L3730.33,5028.23L3728.24,5037.13L3726.06,5041.59L3723.97,5043.76L3719.69,5046.04L3715.42,5046.04L3711.15,5043.76L3709.07,5041.59L3706.88,5037.13L3704.79,5028.23L3704.79,5017.04L3706.88,5008.14L3709.07,5003.69L3711.15,5001.52L3715.42,4999.23" style="fill-rule:nonzero;stroke-miterlimit:4;" stroke-width="6.33333" stroke="white" fill-opacity="0"/>
</g>
</g>
</g>
</g>
</g>
</g>
</g>
</g>
<g transform="matrix(1, 0, 0, 1, -4258.15, -3403.1)">
<g>
<g>
<g gorn="0.1.5.0.0" id="logo">
<g transform="matrix(1.0511, 0, 0, 1.05301, 953.424, -648.038)">
<g>
<g>
<g>
<path d="M4915.11,4989.83L4916.06,4991.03L4916.43,4992.71L4916.43,4993.01L4916.34,4993.89L4915.77,4994.78L4914.82,4996.07L4913.87,4997.16L4912.74,4998.34L4911.97,4999.33L4911.68,4999.93L4911.68,5000.13L4912.26,5000.43L4913.21,5001.12L4914.64,5002.01L4915.86,5002.9L4920.13,5006.46L4924.22,5010.61L4928.02,5015.27L4931.25,5020.11L4933.81,5025.16L4933.99,5025.36L4935.42,5028.72L4917.96,5046.93L4900.49,5065.13L4898.39,5064.93L4895.74,5064.93L4893.37,5065.73L4891.38,5067.1L4889.85,5068.89L4888.9,5071.17L4888.53,5073.65L4888.9,5076.21L4889.75,5078.1L4891.18,5079.97L4892.8,5081.35L4893.84,5081.95L4895.74,5082.34L4898.02,5082.34L4900.2,5081.85L4901.05,5081.45L4902.77,5080.17L4904.09,5078.39L4905.14,5076.31L4905.62,5074.14L4905.42,5072.05L4905.33,5071.67L4905.23,5071.46L4905.23,5071.17L4905.33,5070.87L4905.62,5070.37L4905.99,5069.78L4906.66,5068.99L4907.52,5068L4908.74,5066.61L4910.26,5064.93L4912.16,5062.95L4914.53,5060.48L4917.29,5057.51L4920.61,5054.05L4924.5,5050.09L4924.79,5049.79L4928.68,5045.74L4932.09,5042.18L4934.94,5039.21L4937.31,5036.73L4939.32,5034.66L4941.02,5033.08L4942.35,5031.79L4943.39,5030.8L4944.16,5030.11L4944.82,5029.62L4945.29,5029.31L4945.67,5029.12L4945.96,5029.01L4946.15,5029.01L4947.39,5029.22L4948.34,5029.91L4948.81,5030.4L4949.38,5031.29L4949.66,5032.09L4949.66,5032.97L4949.18,5034.07L4948.23,5035.35L4946.91,5037.04L4944.91,5039.11L4944.25,5039.8L4939.21,5045.14L4938.94,5050.99L4938.37,5057.51L4937.22,5063.54L4935.42,5069.29L4933.52,5073.93L4930.1,5080.08L4926.21,5085.61L4921.65,5090.56L4916.63,5094.92L4911.11,5098.57L4905.14,5101.54L4898.68,5103.82L4895.74,5104.51L4893.64,5104.91L4890.9,5105.2L4887.86,5105.4L4884.73,5105.4L4881.59,5105.4L4878.84,5105.31L4876.66,5105.1L4876.37,5105L4870.86,5103.71L4865.55,5101.94L4860.62,5099.75L4857.38,5097.89L4854.72,5096.2L4852.26,5098.57L4850.92,5099.75L4849.88,5100.55L4849.03,5100.85L4848.46,5100.85L4846.85,5100.55L4845.7,5099.47L4845.04,5097.89L4844.95,5097.18L4844.95,5096.79L4845.04,5096.5L4845.23,5096.1L4845.61,5095.51L4846.08,5094.81L4846.85,5093.93L4847.8,5092.83L4849.13,5091.34L4850.74,5089.67L4852.73,5087.5L4855.2,5084.91L4858.04,5081.85L4861.47,5078.29L4865.45,5074.24L4865.74,5073.84L4886.43,5052.17L4888.42,5052.47L4890.99,5052.47L4893.37,5051.77L4895.36,5050.59L4896.87,5048.91L4898.02,5046.93L4898.59,5044.75L4898.59,5042.48L4897.92,5040.2L4896.69,5038.12L4895.54,5036.83L4893.27,5035.44L4890.9,5034.85L4888.42,5035.06L4886.05,5035.94L4884.35,5037.33L4882.92,5039.02L4882.07,5040.88L4881.78,5043.17L4881.78,5044.55L4881.98,5047.03L4863.08,5066.82L4844.09,5086.51L4842.85,5085.02L4839.82,5080.67L4837.07,5075.82L4834.69,5070.37L4832.79,5064.74L4831.66,5060.38L4831.19,5057.02L4830.9,5053.16L4830.71,5049.1L4830.8,5045.14L4831.09,5041.49L4831.46,5038.91L4833.27,5031.98L4835.73,5025.45L4838.78,5019.42L4842.58,5013.88L4846.65,5009.22L4851.69,5004.58L4857.09,5000.62L4862.9,4997.56L4868.96,4995.18L4875.33,4993.7L4881.98,4993.01L4884.73,4992.9L4887.38,4993.01L4889.95,4993.11L4892.33,4993.3L4894.41,4993.6L4895.83,4993.89L4896.49,4994.19L4896.31,4994.49L4895.54,4995.48L4894.22,4996.97L4892.42,4999.04L4890.04,5001.52L4887.2,5004.58L4883.78,5008.14L4880.93,5011.2L4864.79,5027.93L4861.84,5027.83L4860.05,5027.83L4858.81,5028.02L4857.77,5028.42L4857.2,5028.72L4855.2,5030.4L4853.77,5032.38L4853.11,5034.66L4852.93,5037.13L4853.4,5039.4L4854.44,5041.59L4856.15,5043.47L4857.95,5044.55L4860.32,5045.24L4862.7,5045.14L4865.07,5044.35L4867.06,5042.97L4868.39,5041.49L4868.96,5040.39L4869.34,5039.4L4869.54,5038.12L4869.54,5036.34L4869.54,5036.24L4869.54,5032.87L4890.43,5011.11L4893.84,5007.55L4897.16,5004.18L4900.29,5001.02L4903.05,4998.05L4905.62,4995.48L4907.79,4993.3L4909.6,4991.52L4911.02,4990.23L4911.88,4989.44L4912.16,4989.24L4913.78,4989.15L4915.11,4989.83" fill="white"/>
</g>
</g>
</g>
</g>
<g transform="matrix(1.0511, 0, 0, 1.05301, 953.424, -648.038)">
<g>
<g>
<g>
<path d="M5022.86,5005.57L5025.8,5005.97L5025.89,5005.97L5031.5,5007.55L5036.81,5009.83L5041.65,5012.8L5046.21,5016.45L5050.19,5020.6L5053.71,5025.36L5056.56,5030.5L5058.74,5036.05L5059.5,5038.71L5059.88,5040.5L5060.16,5042.08L5060.36,5043.66L5060.54,5045.45L5060.54,5055.04L5060.36,5056.83L5060.16,5058.31L5059.88,5059.79L5059.5,5061.28L5057.7,5066.91L5055.32,5072.05L5052.29,5076.71L5049.24,5080.46L5044.79,5084.82L5039.95,5088.38L5034.73,5091.15L5029.22,5093.23L5026.84,5093.82L5024.38,5094.22L5021.33,5094.52L5018.21,5094.61L5015.16,5094.61L5012.51,5094.52L5011.94,5094.42L5006.25,5093.23L5000.83,5091.25L4995.9,5088.49L4991.15,5084.91L4987.92,5081.85L4984.6,5078.19L4981.84,5074.43L4979.66,5070.47L4978.9,5068.99L4977.29,5064.84L4976.14,5060.78L4975.39,5056.62L4975.1,5052.17L4991.33,5052.17L4992.01,5056.62L4993.43,5061.07L4995.13,5064.53L4997.32,5067.71L5000.17,5070.68L5003.49,5073.34L5007,5075.42L5010.52,5076.81L5011.18,5077L5013.37,5077.4L5016.02,5077.6L5018.86,5077.6L5021.53,5077.4L5023.81,5077.11L5024.38,5077L5028.17,5075.62L5031.59,5073.74L5034.91,5071.06L5036.52,5069.48L5039.57,5065.92L5041.74,5062.16L5043.36,5058.31L5044.22,5053.95L5044.4,5050.09L5044.02,5045.24L5042.98,5040.69L5041.08,5036.43L5038.42,5032.48L5036.52,5030.3L5032.92,5027.14L5028.92,5024.77L5024.76,5023.19L5020.2,5022.39L5016.4,5022.29L5011.84,5022.98L5007.67,5024.37L5003.87,5026.35L5000.44,5028.92L4997.5,5032.09L4995.13,5035.55L4993.23,5039.4L4992.01,5043.47L4991.33,5047.81L4991.33,5052.17L4975.1,5052.17L4975.19,5045.74L4976.05,5039.8L4977.57,5034.07L4979.85,5028.82L4982.99,5023.87L4986.78,5019.12L4988.3,5017.54L4992.96,5013.48L4997.98,5010.21L5003.29,5007.74L5006.52,5006.65L5009.28,5006.06L5012.42,5005.67L5015.92,5005.47L5019.54,5005.47L5022.86,5005.57" fill="white"/>
</g>
</g>
</g>
</g>
<g transform="matrix(1.0511, 0, 0, 1.05301, 953.424, -648.038)">
<g>
<g>
<g>
<path d="M5083.42,4981.52L5085.52,4982.62L5087.22,4984.2L5088.07,4985.59L5088.36,4986.08L5088.55,4986.67L5088.64,4987.36L5088.73,4988.35L5088.84,4989.74L5088.84,4991.52L5088.93,4993.79L5088.93,5014.87L5091.69,5012.89L5095.76,5010.32L5100.13,5008.14L5104.6,5006.56L5105.93,5006.26L5107.15,5005.97L5108.48,5005.76L5110.09,5005.67L5120.92,5005.67L5122.54,5005.76L5123.86,5005.97L5125.1,5006.16L5127.38,5006.75L5132.79,5008.84L5137.62,5011.51L5142.09,5014.78L5146.27,5018.73L5150.26,5023.38L5153.39,5028.23L5155.77,5033.46L5157.47,5039.11L5158.42,5045.05L5158.51,5047.43L5158.51,5053.75L5157.67,5059.79L5156.14,5065.52L5153.76,5070.97L5150.73,5076.01L5146.84,5080.67L5145.69,5081.85L5141.33,5085.81L5136.78,5088.98L5132.03,5091.45L5126.9,5093.23L5124.62,5093.82L5122.16,5094.22L5119.22,5094.52L5115.99,5094.61L5112.94,5094.61L5110.29,5094.52L5109.72,5094.42L5104.03,5093.23L5098.7,5091.25L5093.77,5088.49L5089.02,5085.02L5084.94,5081.07L5083.42,5079.28L5081.81,5077.4L5080.57,5075.72L5079.71,5074.52L5077.82,5071.17L5076.11,5067.41L5074.69,5063.54L5074.02,5061.28L5073.83,5060.58L5073.65,5059.99L5073.54,5059.3L5073.45,5058.5L5073.36,5057.51L5073.27,5056.33L5073.17,5054.85L5073.17,5053.06L5073.07,5050.89L5073.07,5050.39L5089.12,5050.39L5089.59,5055.14L5090.74,5059.59L5092.64,5063.85L5095.1,5067.6L5098.13,5070.97L5101.84,5073.74L5105.93,5075.82L5109.14,5077L5111.15,5077.4L5113.71,5077.6L5116.55,5077.6L5119.22,5077.49L5121.49,5077.2L5122.16,5077L5125.76,5075.72L5129.28,5073.74L5132.69,5071.27L5135.63,5068.3L5138.01,5065.24L5138.39,5064.53L5140.47,5060.29L5141.8,5055.73L5142.37,5051.18L5142.19,5046.63L5141.14,5041.87L5139.43,5037.53L5137.15,5033.67L5134.3,5030.21L5130.98,5027.34L5127.29,5025.05L5123.29,5023.38L5119.02,5022.39L5114.56,5022.2L5110.2,5022.79L5106.11,5024.07L5102.22,5026.15L5098.61,5028.82L5095.58,5031.98L5093.01,5035.55L5091.87,5037.63L5090.63,5040.69L5089.79,5043.36L5089.31,5046.13L5089.12,5049.1L5089.12,5050.39L5073.07,5050.39L5073.07,5048.11L5073.07,5044.95L5072.98,5041.19L5072.98,5036.64L5072.98,5031.49L5072.98,5025.55L5072.88,5022.48L5072.88,5016.05L5072.88,5010.42L5072.88,5005.57L5072.88,5001.31L5072.88,4997.75L5072.88,4994.78L5072.98,4992.31L5072.98,4990.33L5073.07,4988.75L5073.17,4987.46L5073.36,4986.47L5073.54,4985.68L5073.74,4985.19L5074.02,4984.7L5074.4,4984.3L5074.69,4983.9L5075.07,4983.5L5076.87,4982.02L5078.96,4981.23L5081.24,4981.03L5083.42,4981.52" fill="white"/>
</g>
</g>
</g>
</g>
<g transform="matrix(1.0511, 0, 0, 1.05301, 953.424, -648.038)">
<g>
<g>
<g>
<path d="M5216.05,5005.76L5221.07,5006.75L5225.91,5008.54L5230.66,5011.11L5231.13,5011.41L5235.7,5014.78L5239.78,5018.83L5243.29,5023.38L5246.14,5028.33L5248.33,5033.57L5249.84,5039.11L5250.32,5042.27L5250.41,5043.66L5250.5,5045.64L5250.5,5048.21L5250.6,5051.38L5250.7,5054.85L5250.7,5074.24L5250.6,5077.8L5250.6,5081.07L5250.5,5083.83L5250.5,5086.11L5250.41,5087.69L5250.32,5088.49L5249.28,5090.75L5247.66,5092.64L5245.57,5094.02L5243.67,5094.61L5241.48,5094.61L5239.4,5093.93L5237.41,5092.73L5235.79,5090.96L5234.75,5088.98L5234.65,5088.58L5234.56,5087.69L5234.46,5086.01L5234.36,5083.43L5234.27,5079.97L5234.27,5075.82L5234.18,5070.68L5234.18,5065.13L5234.18,5059.99L5234.18,5055.53L5234.18,5051.88L5234.09,5048.8L5234.09,5046.23L5233.89,5044.16L5233.8,5042.37L5233.51,5040.99L5233.23,5039.7L5232.94,5038.62L5232.47,5037.63L5231.99,5036.54L5231.42,5035.35L5229.14,5031.69L5226.2,5028.52L5222.79,5025.85L5219.08,5023.87L5215,5022.69L5210.72,5022.2L5210.25,5022.2L5206.17,5022.58L5202.28,5023.78L5198.58,5025.76L5195.26,5028.33L5192.32,5031.49L5189.84,5035.15L5188.04,5039.3L5187.85,5039.8L5187.66,5040.39L5187.46,5041.09L5187.37,5041.78L5187.28,5042.67L5187.19,5043.76L5187.1,5045.24L5186.99,5047.03L5186.99,5049.29L5186.9,5052.07L5186.9,5055.44L5186.81,5059.59L5186.81,5064.44L5186.71,5065.83L5186.71,5070.97L5186.62,5075.23L5186.62,5078.88L5186.52,5081.85L5186.52,5084.23L5186.42,5086.11L5186.33,5087.5L5186.24,5088.58L5186.15,5089.37L5186.04,5089.86L5185.86,5090.26L5185.86,5090.35L5184.34,5092.44L5182.35,5093.82L5180.07,5094.61L5177.69,5094.71L5176.18,5094.31L5173.99,5093.13L5172.18,5091.25L5171.52,5089.97L5171.33,5089.67L5171.23,5089.27L5171.14,5088.87L5171.05,5088.28L5170.96,5087.59L5170.85,5086.6L5170.76,5085.31L5170.76,5083.73L5170.76,5081.66L5170.67,5079.18L5170.67,5076.12L5170.67,5072.55L5170.67,5068.3L5170.67,5063.45L5170.67,5057.81L5170.67,5051.38L5170.67,5050L5170.67,5043.36L5170.67,5037.53L5170.67,5032.48L5170.67,5028.13L5170.67,5024.46L5170.67,5021.3L5170.76,5018.73L5170.76,5016.55L5170.76,5014.87L5170.85,5013.48L5170.96,5012.49L5171.05,5011.7L5171.14,5011.2L5171.23,5010.71L5171.33,5010.42L5171.43,5010.21L5172.95,5007.95L5174.75,5006.37L5177.13,5005.57L5179.03,5005.38L5181.49,5005.76L5183.57,5006.96L5185.29,5008.73L5186.42,5011.11L5186.52,5011.51L5186.99,5013.09L5189.84,5011.2L5194.4,5008.63L5199.24,5006.86L5204.46,5005.76L5210.16,5005.38L5210.54,5005.38L5216.05,5005.76" fill="white"/>
</g>
</g>
</g>
</g>
<g transform="matrix(1.0511, 0, 0, 1.05301, 953.803, -648.038)">
<g>
<g>
<g>
<path d="M5277.28,5005.76L5279.46,5006.96L5281.26,5008.94L5281.45,5009.22L5282.69,5011.01L5282.78,5048.91L5282.87,5056.22L5282.87,5068.4L5282.78,5073.34L5282.78,5081.07L5282.69,5083.83L5282.69,5085.9L5282.6,5087.39L5282.5,5088.28L5282.5,5088.58L5281.65,5090.35L5280.32,5092.05L5278.71,5093.53L5276.99,5094.42L5276.9,5094.42L5275.28,5094.71L5273.85,5094.71L5272.43,5094.31L5272.06,5094.22L5270.06,5093.13L5268.26,5091.45L5267.31,5089.97L5267.21,5089.67L5267.02,5089.17L5266.93,5088.68L5266.93,5087.79L5266.84,5086.7L5266.73,5085.22L5266.73,5083.43L5266.64,5081.07L5266.64,5078.29L5266.64,5074.92L5266.55,5070.97L5266.55,5066.32L5266.55,5060.88L5266.55,5054.74L5266.46,5051.38L5266.46,5043.66L5266.46,5036.83L5266.46,5030.8L5266.46,5025.66L5266.55,5021.3L5266.55,5017.74L5266.64,5015.06L5266.73,5013.18L5266.84,5012.19L5266.84,5012.1L5267.68,5009.53L5269.21,5007.55L5271.2,5006.16L5273.67,5005.47L5274.71,5005.38L5277.28,5005.76" fill="white"/>
</g>
</g>
</g>
</g>
<g transform="matrix(1.0511, 0, 0, 1.05301, 953.424, -648.038)">
<g>
<g>
<g>
<path d="M5326.45,5005.47L5336.8,5005.47L5368.31,5005.57L5369.84,5006.96L5371.64,5008.94L5372.78,5011.31L5373.17,5012.8L5373.26,5013.98L5373.17,5015.06L5372.78,5016.26L5372.11,5017.63L5370.98,5019.32L5369.55,5021.3L5367.56,5023.87L5367,5024.56L5365.76,5026.04L5364.04,5028.23L5361.96,5030.8L5359.49,5033.86L5356.74,5037.23L5353.8,5040.88L5350.66,5044.84L5347.43,5048.8L5344.21,5052.87L5342.97,5054.45L5324.46,5077.4L5345.91,5077.7L5350.75,5077.7L5354.93,5077.8L5358.35,5077.8L5361.19,5077.89L5363.47,5077.99L5365.28,5078.1L5366.7,5078.19L5367.84,5078.39L5368.6,5078.59L5369.26,5078.88L5369.74,5079.28L5370.69,5080.27L5372.02,5082.25L5372.69,5084.32L5372.78,5086.7L5372.78,5087L5372.59,5088.68L5372.31,5089.86L5371.54,5091.06L5371.36,5091.25L5370.32,5092.54L5369.08,5093.53L5368.7,5093.82L5368.42,5093.93L5368.13,5094.12L5367.65,5094.22L5367.09,5094.31L5366.32,5094.42L5365.19,5094.52L5363.76,5094.52L5361.96,5094.61L5359.77,5094.61L5357.03,5094.61L5353.7,5094.71L5349.71,5094.71L5345.05,5094.71L5339.74,5094.71L5336.62,5094.71L5330.63,5094.71L5325.41,5094.81L5320.95,5094.81L5317.15,5094.71L5313.92,5094.71L5311.35,5094.71L5309.18,5094.61L5307.46,5094.61L5306.24,5094.52L5305.29,5094.42L5304.62,5094.31L5304.23,5094.22L5302.06,5093.03L5300.44,5091.15L5299.39,5088.87L5299.01,5086.3L5299.12,5084.72L5299.39,5083.33L5299.49,5082.93L5299.87,5082.44L5300.73,5081.35L5301.97,5079.68L5303.67,5077.49L5305.76,5074.83L5308.14,5071.76L5310.79,5068.3L5313.83,5064.53L5316.96,5060.58L5320.37,5056.33L5323.69,5052.17L5327.12,5047.81L5330.45,5043.66L5333.66,5039.7L5336.51,5036.05L5339.17,5032.68L5341.55,5029.81L5343.54,5027.24L5345.16,5025.26L5346.29,5023.68L5347.06,5022.69L5347.34,5022.39L5346.86,5022.39L5345.73,5022.29L5343.92,5022.29L5341.55,5022.2L5338.61,5022.2L5335.28,5022.2L5331.49,5022.2L5327.49,5022.2L5326.45,5022.2L5321.52,5022.2L5317.43,5022.2L5314.02,5022.09L5311.17,5022.09L5308.89,5021.99L5307.08,5021.89L5305.56,5021.8L5304.52,5021.59L5303.67,5021.4L5303.01,5021.1L5302.44,5020.71L5301.97,5020.31L5301.58,5019.92L5300.16,5018.03L5299.3,5015.77L5299.01,5013.29L5299.39,5011.01L5299.59,5010.42L5300.25,5009.22L5301.39,5007.95L5302.72,5006.65L5303.86,5005.87L5304.43,5005.57L5306.33,5005.57L5308.32,5005.47L5326.45,5005.47" fill="white"/>
</g>
</g>
</g>
</g>
</g>
</g>
</g>
</g>
<g transform="matrix(1, 0, 0, 1, -4258.15, -3403.1)">
<g>
<g>
<g gorn="0.1.6.0.0" id="holes">
<g transform="matrix(1.0511, 0, 0, 1.05301, 953.424, -648.038)">
<g>
<g>
<g>
<path d="M5449.3,5042.37L5613.72,5042.37" fill="rgb(219,219,219)" style="fill-rule:nonzero;stroke-miterlimit:4;" stroke-width="94.4445" stroke="rgb(219,219,219)" fill-opacity="0"/>
</g>
</g>
</g>
</g>
<g transform="matrix(1.0511, 0, 0, 1.05301, 953.424, -648.038)">
<g>
<g>
<g>
<circle fill="rgb(219,219,219)" cx="3716.25" cy="4808.49" r="31.7633"/>
</g>
</g>
</g>
</g>
<g transform="matrix(1.0511, 0, 0, 1.05301, 953.424, -648.038)">
<g>
<g>
<g>
<circle fill="rgb(219,219,219)" cx="3811.19" cy="4808.49" r="31.7633"/>
</g>
</g>
</g>
</g>
<g transform="matrix(1.0511, 0, 0, 1.05301, 953.424, -648.038)">
<g>
<g>
<g>
<circle fill="rgb(219,219,219)" cx="3906.12" cy="4808.49" r="31.7633"/>
</g>
</g>
</g>
</g>
<g transform="matrix(1.0511, 0, 0, 1.05301, 953.424, -648.038)">
<g>
<g>
<g>
<circle fill="rgb(219,219,219)" cx="4001.05" cy="4808.49" r="31.7633"/>
</g>
</g>
</g>
</g>
<g transform="matrix(1.0511, 0, 0, 1.05301, 953.424, -648.038)">
<g>
<g>
<g>
<circle fill="rgb(219,219,219)" cx="4095.99" cy="4808.49" r="31.7633"/>
</g>
</g>
</g>
</g>
<g transform="matrix(1.0511, 0, 0, 1.05301, 953.424, -648.038)">
<g>
<g>
<g>
<circle fill="rgb(219,219,219)" cx="4190.92" cy="4808.49" r="31.7633"/>
</g>
</g>
</g>
</g>
<g transform="matrix(1.0511, 0, 0, 1.05301, 953.424, -648.038)">
<g>
<g>
<g>
<circle fill="rgb(219,219,219)" cx="4760.53" cy="4808.49" r="31.7633"/>
</g>
</g>
</g>
</g>
<g transform="matrix(1.0511, 0, 0, 1.05301, 953.424, -648.038)">
<g>
<g>
<g>
<circle fill="rgb(219,219,219)" cx="4665.59" cy="4808.49" r="31.7633"/>
</g>
</g>
</g>
</g>
<g transform="matrix(1.0511, 0, 0, 1.05301, 953.424, -648.038)">
<g>
<g>
<g>
<circle fill="rgb(219,219,219)" cx="4570.66" cy="4808.49" r="31.7633"/>
</g>
</g>
</g>
</g>
<g transform="matrix(1.0511, 0, 0, 1.05301, 953.424, -648.038)">
<g>
<g>
<g>
<circle fill="rgb(219,219,219)" cx="4475.72" cy="4808.49" r="31.7633"/>
</g>
</g>
</g>
</g>
<g transform="matrix(1.0511, 0, 0, 1.05301, 953.424, -648.038)">
<g>
<g>
<g>
<circle fill="rgb(219,219,219)" cx="4380.79" cy="4808.49" r="31.7633"/>
</g>
</g>
</g>
</g>
<g transform="matrix(1.0511, 0, 0, 1.05301, 953.424, -648.038)">
<g>
<g>
<g>
<circle fill="rgb(219,219,219)" cx="4285.86" cy="4808.49" r="31.7633"/>
</g>
</g>
</g>
</g>
<g transform="matrix(1.0511, 0, 0, 1.05301, 953.424, -648.038)">
<g>
<g>
<g>
<circle fill="rgb(219,219,219)" cx="3326.93" cy="4906.88" r="33.6356"/>
</g>
</g>
</g>
</g>
<g transform="matrix(1.0511, 0, 0, 1.05301, 953.424, -648.038)">
<g>
<g>
<g>
<circle fill="rgb(219,219,219)" cx="3326.93" cy="4807.94" r="33.6356"/>
</g>
</g>
</g>
</g>
<g transform="matrix(1.0511, 0, 0, 1.05301, -148.792, -203.096)">
<g>
<g>
<g>
<g transform="matrix(1, 0, 0, 1, 1048.63, -422.541)">
<g>
<g>
<g>
<path d="M3316.79,4698.66L3256.98,4698.66L3256.98,4636.33L3316.79,4636.33L3316.79,4698.66" fill="rgb(219,219,219)"/>
</g>
</g>
</g>
</g>
<g transform="matrix(1, 0, 0, 1, 1048.63, -422.541)">
<g>
<g>
<g>
<path d="M3316.79,4457.14L3256.98,4457.14L3256.98,4394.81L3316.79,4394.81L3316.79,4457.14" fill="rgb(219,219,219)"/>
</g>
</g>
</g>
</g>
<g transform="matrix(1, 0, 0, 1, 1048.63, -422.541)">
<g>
<g>
<g>
<circle fill="rgb(219,219,219)" cx="3387.9" cy="4449.37" r="23.3643"/>
</g>
</g>
</g>
</g>
</g>
</g>
</g>
</g>
<g transform="matrix(1.0511, 0, 0, 1.05301, 953.424, -648.038)">
<g>
<g>
<g>
<circle fill="rgb(219,219,219)" cx="3387.9" cy="4644.14" r="23.3643"/>
</g>
</g>
</g>
</g>
<g transform="matrix(1.0511, 0, 0, 1.05301, 953.424, -648.038)">
<g>
<g>
<g>
<path d="M3412.31,5042.37L3576.82,5042.37" fill="rgb(219,219,219)" style="fill-rule:nonzero;stroke-miterlimit:4;" stroke-width="94.4445" stroke="rgb(219,219,219)" fill-opacity="0"/>
</g>
</g>
</g>
</g>
<g transform="matrix(1.0511, 0, 0, 1.05301, -148.792, -203.096)">
<g>
<g>
<g>
<g transform="matrix(1, 0, 0, 1, 1048.63, -422.541)">
<g>
<g>
<g>
<path d="M5574.52,4214.25L5574.52,4179.23L5649.23,4179.23L5649.23,4214.25L5574.52,4214.25" fill="rgb(219,219,219)"/>
</g>
</g>
</g>
</g>
<g transform="matrix(1, 0, 0, 1, 1048.63, -422.541)">
<g>
<g>
<g>
<path d="M5574.52,4263.72L5574.52,4228.7L5649.23,4228.7L5649.23,4263.72L5574.52,4263.72" fill="rgb(219,219,219)"/>
</g>
</g>
</g>
</g>
<g transform="matrix(1, 0, 0, 1, 1048.63, -422.541)">
<g>
<g>
<g>
<path d="M5574.52,4313.19L5574.52,4278.17L5649.23,4278.17L5649.23,4313.19L5574.52,4313.19" fill="rgb(219,219,219)"/>
</g>
</g>
</g>
</g>
<g transform="matrix(1, 0, 0, 1, 1048.63, -422.541)">
<g>
<g>
<g>
<path d="M5574.52,4362.65L5574.52,4327.64L5649.23,4327.64L5649.23,4362.65L5574.52,4362.65" fill="rgb(219,219,219)"/>
</g>
</g>
</g>
</g>
<g transform="matrix(1, 0, 0, 1, 1048.63, -422.541)">
<g>
<g>
<g>
<path d="M5574.52,4412.12L5574.52,4377.11L5649.23,4377.11L5649.23,4412.12L5574.52,4412.12" fill="rgb(219,219,219)"/>
</g>
</g>
</g>
</g>
<g transform="matrix(1, 0, 0, 1, 1048.63, -422.541)">
<g>
<g>
<g>
<path d="M5574.52,4461.59L5574.52,4426.58L5649.23,4426.58L5649.23,4461.59L5574.52,4461.59" fill="rgb(219,219,219)"/>
</g>
</g>
</g>
</g>
<g transform="matrix(1, 0, 0, 1, 1048.63, -422.541)">
<g>
<g>
<g>
<path d="M5574.52,4511.06L5574.52,4476.05L5649.23,4476.05L5649.23,4511.06L5574.52,4511.06" fill="rgb(219,219,219)"/>
</g>
</g>
</g>
</g>
<g transform="matrix(1, 0, 0, 1, 1048.63, -422.541)">
<g>
<g>
<g>
<path d="M5574.52,4560.53L5574.52,4525.52L5649.23,4525.52L5649.23,4560.53L5574.52,4560.53" fill="rgb(219,219,219)"/>
</g>
</g>
</g>
</g>
<g transform="matrix(1, 0, 0, 1, 1048.63, -422.541)">
<g>
<g>
<g>
<path d="M5574.52,4610L5574.52,4574.99L5649.23,4574.99L5649.23,4610L5574.52,4610" fill="rgb(219,219,219)"/>
</g>
</g>
</g>
</g>
<g transform="matrix(1, 0, 0, 1, 1048.63, -422.541)">
<g>
<g>
<g>
<path d="M5574.52,4659.47L5574.52,4624.46L5649.23,4624.46L5649.23,4659.47L5574.52,4659.47" fill="rgb(219,219,219)"/>
</g>
</g>
</g>
</g>
<g transform="matrix(1, 0, 0, 1, 1048.63, -422.541)">
<g>
<g>
<g>
<path d="M5574.52,4708.94L5574.52,4673.93L5649.23,4673.93L5649.23,4708.94L5574.52,4708.94" fill="rgb(219,219,219)"/>
</g>
</g>
</g>
</g>
<g transform="matrix(1, 0, 0, 1, 1048.63, -422.541)">
<g>
<g>
<g>
<path d="M5574.52,4758.41L5574.52,4723.4L5649.23,4723.4L5649.23,4758.41L5574.52,4758.41" fill="rgb(219,219,219)"/>
</g>
</g>
</g>
</g>
<g transform="matrix(1, 0, 0, 1, 1048.63, -422.541)">
<g>
<g>
<g>
<path d="M5574.52,4807.88L5574.52,4772.87L5649.23,4772.87L5649.23,4807.88L5574.52,4807.88" fill="rgb(219,219,219)"/>
</g>
</g>
</g>
</g>
<g transform="matrix(1, 0, 0, 1, 1048.63, -422.541)">
<g>
<g>
<g>
<path d="M5574.52,4857.35L5574.52,4822.34L5649.23,4822.34L5649.23,4857.35L5574.52,4857.35" fill="rgb(219,219,219)"/>
</g>
</g>
</g>
</g>
<g transform="matrix(1, 0, 0, 1, 1048.63, -422.541)">
<g>
<g>
<g>
<path d="M5466.68,4943.04L5466.68,4865.17L5500.27,4865.17L5500.27,4943.04L5466.68,4943.04" fill="rgb(219,219,219)"/>
</g>
</g>
</g>
</g>
<g transform="matrix(1, 0, 0, 1, 1048.63, -422.541)">
<g>
<g>
<g>
<path d="M5419.21,4943.04L5419.21,4865.17L5452.8,4865.17L5452.8,4943.04L5419.21,4943.04" fill="rgb(219,219,219)"/>
</g>
</g>
</g>
</g>
<g transform="matrix(1, 0, 0, 1, 1048.63, -422.541)">
<g>
<g>
<g>
<path d="M5371.74,4943.04L5371.74,4865.17L5405.34,4865.17L5405.34,4943.04L5371.74,4943.04" fill="rgb(219,219,219)"/>
</g>
</g>
</g>
</g>
<g transform="matrix(1, 0, 0, 1, 1048.63, -422.541)">
<g>
<g>
<g>
<path d="M5324.27,4943.04L5324.27,4865.17L5357.87,4865.17L5357.87,4943.04L5324.27,4943.04" fill="rgb(219,219,219)"/>
</g>
</g>
</g>
</g>
<g transform="matrix(1, 0, 0, 1, 1048.63, -422.541)">
<g>
<g>
<g>
<path d="M5276.61,4943.04L5276.61,4865.17L5310.31,4865.17L5310.31,4943.04L5276.61,4943.04" fill="rgb(219,219,219)"/>
</g>
</g>
</g>
</g>
<g transform="matrix(1, 0, 0, 1, 1048.63, -422.541)">
<g>
<g>
<g>
<path d="M5229.14,4943.04L5229.14,4865.17L5262.84,4865.17L5262.84,4943.04L5229.14,4943.04" fill="rgb(219,219,219)"/>
</g>
</g>
</g>
</g>
<g transform="matrix(1, 0, 0, 1, 1048.63, -422.541)">
<g>
<g>
<g>
<path d="M5181.68,4943.04L5181.68,4865.17L5215.38,4865.17L5215.38,4943.04L5181.68,4943.04" fill="rgb(219,219,219)"/>
</g>
</g>
</g>
</g>
<g transform="matrix(1, 0, 0, 1, 1048.63, -422.541)">
<g>
<g>
<g>
<path d="M5134.21,4943.04L5134.21,4865.17L5167.91,4865.17L5167.91,4943.04L5134.21,4943.04" fill="rgb(219,219,219)"/>
</g>
</g>
</g>
</g>
<g transform="matrix(1, 0, 0, 1, 1048.63, -422.541)">
<g>
<g>
<g>
<path d="M5086.74,4943.04L5086.74,4865.17L5120.44,4865.17L5120.44,4943.04L5086.74,4943.04" fill="rgb(219,219,219)"/>
</g>
</g>
</g>
</g>
<g transform="matrix(1, 0, 0, 1, 1048.63, -422.541)">
<g>
<g>
<g>
<path d="M5039.28,4943.04L5039.28,4865.17L5072.98,4865.17L5072.98,4943.04L5039.28,4943.04" fill="rgb(219,219,219)"/>
</g>
</g>
</g>
</g>
<g transform="matrix(1, 0, 0, 1, 1048.63, -422.541)">
<g>
<g>
<g>
<path d="M4890.52,4857.35L4890.52,4822.34L4965.32,4822.34L4965.32,4857.35L4890.52,4857.35" fill="rgb(219,219,219)"/>
</g>
</g>
</g>
</g>
<g transform="matrix(1, 0, 0, 1, 1048.63, -422.541)">
<g>
<g>
<g>
<path d="M4890.52,4807.88L4890.52,4772.87L4965.32,4772.87L4965.32,4807.88L4890.52,4807.88" fill="rgb(219,219,219)"/>
</g>
</g>
</g>
</g>
<g transform="matrix(1, 0, 0, 1, 1048.63, -422.541)">
<g>
<g>
<g>
<path d="M4890.52,4758.41L4890.52,4723.4L4965.32,4723.4L4965.32,4758.41L4890.52,4758.41" fill="rgb(219,219,219)"/>
</g>
</g>
</g>
</g>
<g transform="matrix(1, 0, 0, 1, 1048.63, -422.541)">
<g>
<g>
<g>
<path d="M4890.52,4708.94L4890.52,4673.93L4965.32,4673.93L4965.32,4708.94L4890.52,4708.94" fill="rgb(219,219,219)"/>
</g>
</g>
</g>
</g>
<g transform="matrix(1, 0, 0, 1, 1048.63, -422.541)">
<g>
<g>
<g>
<path d="M4890.52,4659.47L4890.52,4624.46L4965.32,4624.46L4965.32,4659.47L4890.52,4659.47" fill="rgb(219,219,219)"/>
</g>
</g>
</g>
</g>
<g transform="matrix(1, 0, 0, 1, 1048.63, -422.541)">
<g>
<g>
<g>
<path d="M4890.52,4610L4890.52,4574.99L4965.32,4574.99L4965.32,4610L4890.52,4610" fill="rgb(219,219,219)"/>
</g>
</g>
</g>
</g>
<g transform="matrix(1, 0, 0, 1, 1048.63, -422.541)">
<g>
<g>
<g>
<path d="M4890.52,4560.53L4890.52,4525.52L4965.32,4525.52L4965.32,4560.53L4890.52,4560.53" fill="rgb(219,219,219)"/>
</g>
</g>
</g>
</g>
<g transform="matrix(1, 0, 0, 1, 1048.63, -422.541)">
<g>
<g>
<g>
<path d="M4890.52,4511.06L4890.52,4476.05L4965.32,4476.05L4965.32,4511.06L4890.52,4511.06" fill="rgb(219,219,219)"/>
</g>
</g>
</g>
</g>
<g transform="matrix(1, 0, 0, 1, 1048.63, -422.541)">
<g>
<g>
<g>
<path d="M4890.52,4461.59L4890.52,4426.58L4965.32,4426.58L4965.32,4461.59L4890.52,4461.59" fill="rgb(219,219,219)"/>
</g>
</g>
</g>
</g>
<g transform="matrix(1, 0, 0, 1, 1048.63, -422.541)">
<g>
<g>
<g>
<path d="M4890.52,4412.12L4890.52,4377.11L4965.32,4377.11L4965.32,4412.12L4890.52,4412.12" fill="rgb(219,219,219)"/>
</g>
</g>
</g>
</g>
<g transform="matrix(1, 0, 0, 1, 1048.63, -422.541)">
<g>
<g>
<g>
<path d="M4890.52,4362.65L4890.52,4327.64L4965.32,4327.64L4965.32,4362.65L4890.52,4362.65" fill="rgb(219,219,219)"/>
</g>
</g>
</g>
</g>
<g transform="matrix(1, 0, 0, 1, 1048.63, -422.541)">
<g>
<g>
<g>
<path d="M4890.52,4313.19L4890.52,4278.17L4965.32,4278.17L4965.32,4313.19L4890.52,4313.19" fill="rgb(219,219,219)"/>
</g>
</g>
</g>
</g>
<g transform="matrix(1, 0, 0, 1, 1048.63, -422.541)">
<g>
<g>
<g>
<path d="M4890.52,4263.72L4890.52,4228.7L4965.32,4228.7L4965.32,4263.72L4890.52,4263.72" fill="rgb(219,219,219)"/>
</g>
</g>
</g>
</g>
<g transform="matrix(1, 0, 0, 1, 1048.63, -422.541)">
<g>
<g>
<g>
<path d="M4890.52,4214.25L4890.52,4179.23L4965.32,4179.23L4965.32,4214.25L4890.52,4214.25" fill="rgb(219,219,219)"/>
</g>
</g>
</g>
</g>
</g>
</g>
</g>
</g>
<g transform="matrix(1.0511, 0, 0, 1.05301, 953.424, -648.038)">
<g>
<g>
<g>
<circle fill="rgb(194,194,194)" cx="3449.77" cy="4643.16" r="17.1936"/>
</g>
</g>
</g>
</g>
<g transform="matrix(1.0511, 0, 0, 1.05301, 953.424, -648.038)">
<g>
<g>
<g>
<circle fill="rgb(194,194,194)" cx="3449.77" cy="4588.63" r="17.1936"/>
</g>
</g>
</g>
</g>
<g transform="matrix(1.0511, 0, 0, 1.05301, 953.424, -648.038)">
<g>
<g>
<g>
<circle fill="rgb(194,194,194)" cx="5729.67" cy="4876.88" r="17.1936"/>
</g>
</g>
</g>
</g>
<g transform="matrix(1.0511, 0, 0, 1.05301, 953.424, -648.038)">
<g>
<g>
<g>
<circle fill="rgb(194,194,194)" cx="5729.67" cy="4826.24" r="17.1936"/>
</g>
</g>
</g>
</g>
<g transform="matrix(1.0511, 0, 0, 1.05301, 953.424, -648.038)">
<g>
<g>
<g>
<path d="M5449.3,5042.37L5613.72,5042.37" fill="rgb(75,75,75)" style="fill-rule:nonzero;stroke-miterlimit:4;" stroke-width="69.3334" stroke="rgb(75,75,75)" fill-opacity="0"/>
</g>
</g>
</g>
</g>
<g transform="matrix(1.0511, 0, 0, 1.05301, 953.424, -648.038)">
<g>
<g>
<g>
<circle fill="rgb(75,75,75)" cx="3449.77" cy="4643.16" r="11.2075"/>
</g>
</g>
</g>
</g>
<g transform="matrix(1.0511, 0, 0, 1.05301, 953.424, -648.038)">
<g>
<g>
<g>
<circle fill="rgb(75,75,75)" cx="3449.77" cy="4588.63" r="11.2075"/>
</g>
</g>
</g>
</g>
<g transform="matrix(1.0511, 0, 0, 1.05301, 953.424, -648.038)">
<g>
<g>
<g>
<circle fill="rgb(75,75,75)" cx="5729.67" cy="4876.88" r="11.2075"/>
</g>
</g>
</g>
</g>
<g transform="matrix(1.0511, 0, 0, 1.05301, 953.424, -648.038)">
<g>
<g>
<g>
<circle fill="rgb(75,75,75)" cx="5729.67" cy="4826.24" r="11.2075"/>
</g>
</g>
</g>
</g>
<g transform="matrix(1.0511, 0, 0, 1.05301, 953.424, -648.038)">
<g>
<g>
<g>
<circle fill="rgb(75,75,75)" cx="5743.3" cy="4601.49" r="12.1436"/>
</g>
</g>
</g>
</g>
<g transform="matrix(1.0511, 0, 0, 1.05301, 953.424, -648.038)">
<g>
<g>
<g>
<circle fill="rgb(75,75,75)" cx="5743.3" cy="4552.02" r="12.1436"/>
</g>
</g>
</g>
</g>
<g transform="matrix(1.0511, 0, 0, 1.05301, 953.424, -648.038)">
<g>
<g>
<g>
<circle fill="rgb(75,75,75)" cx="5743.3" cy="4502.55" r="12.1436"/>
</g>
</g>
</g>
</g>
<g transform="matrix(1.0511, 0, 0, 1.05301, 953.424, -648.038)">
<g>
<g>
<g>
<circle fill="rgb(75,75,75)" cx="5743.3" cy="4453.08" r="12.1436"/>
</g>
</g>
</g>
</g>
<g transform="matrix(1.0511, 0, 0, 1.05301, 953.424, -648.038)">
<g>
<g>
<g>
<circle fill="rgb(75,75,75)" cx="5743.3" cy="4403.61" r="12.1436"/>
</g>
</g>
</g>
</g>
<g transform="matrix(1.0511, 0, 0, 1.05301, 953.424, -648.038)">
<g>
<g>
<g>
<circle fill="rgb(75,75,75)" cx="5743.3" cy="4354.14" r="12.1436"/>
</g>
</g>
</g>
</g>
<g transform="matrix(1.0511, 0, 0, 1.05301, 953.424, -648.038)">
<g>
<g>
<g>
<circle fill="rgb(75,75,75)" cx="5743.3" cy="4304.67" r="12.1436"/>
</g>
</g>
</g>
</g>
<g transform="matrix(1.0511, 0, 0, 1.05301, 953.424, -648.038)">
<g>
<g>
<g>
<circle fill="rgb(75,75,75)" cx="5743.3" cy="4255.2" r="12.1436"/>
</g>
</g>
</g>
</g>
<g transform="matrix(1.0511, 0, 0, 1.05301, 953.424, -648.038)">
<g>
<g>
<g>
<circle fill="rgb(75,75,75)" cx="5743.3" cy="4205.73" r="12.1436"/>
</g>
</g>
</g>
</g>
<g transform="matrix(1.0511, 0, 0, 1.05301, 939.586, -648.038)">
<g>
<g>
<g>
<circle fill="rgb(75,75,75)" cx="3644.12" cy="4101.72" r="20.5558"/>
</g>
</g>
</g>
</g>
<g transform="matrix(1.0511, 0, 0, 1.05301, 746.008, -648.038)">
<g>
<g>
<g>
<circle fill="rgb(75,75,75)" cx="3644.12" cy="4101.72" r="20.5558"/>
</g>
</g>
</g>
</g>
<g transform="matrix(1.0511, 0, 0, 1.05301, 953.424, -648.038)">
<g>
<g>
<g>
<circle fill="rgb(75,75,75)" cx="3326.93" cy="4906.88" r="18.6835"/>
</g>
</g>
</g>
</g>
<g transform="matrix(1.0511, 0, 0, 1.05301, 953.424, -648.038)">
<g>
<g>
<g>
<circle fill="rgb(75,75,75)" cx="3326.93" cy="4807.94" r="18.6835"/>
</g>
</g>
</g>
</g>
<g transform="matrix(1.0511, 0, 0, 1.05301, 953.424, -648.038)">
<g>
<g>
<g>
<circle fill="rgb(75,75,75)" cx="3387.9" cy="4449.37" r="15.8882"/>
</g>
</g>
</g>
</g>
<g transform="matrix(1.0511, 0, 0, 1.05301, 953.424, -648.038)">
<g>
<g>
<g>
<circle fill="rgb(75,75,75)" cx="3387.9" cy="4644.14" r="15.8882"/>
</g>
</g>
</g>
</g>
<g transform="matrix(1.0511, 0, 0, 1.05301, 953.424, -648.038)">
<g>
<g>
<g>
<path d="M3412.31,5042.37L3576.82,5042.37" fill="rgb(75,75,75)" style="fill-rule:nonzero;stroke-miterlimit:4;" stroke-width="69.3334" stroke="rgb(75,75,75)" fill-opacity="0"/>
</g>
</g>
</g>
</g>
</g>
</g>
</g>
</g>
<g transform="matrix(1, 0, 0, 1, -4258.15, -3403.1)">
<g>
<g>
<g gorn="0.1.7.0.0" id="display">
<g transform="matrix(1.0511, 0, 0, 1.05301, 4213.52, 3297.86)">
<g>
<g>
<g>
<path d="M1360.94,152.574L1360.94,242.211L1635.68,242.211L1635.68,992.478L637.732,992.478L637.732,242.211L912.473,242.211L912.473,154.704" fill="rgb(93,93,93)"/>
</g>
</g>
</g>
</g>
<g transform="matrix(1.21907, 0, 0, 1.41185, 4022.73, 3029.87)">
<g>
<g>
<g>
<path d="M730.49,473.442L1543.02,473.442L1543.02,909.864L730.49,909.864L730.49,473.442" fill="rgb(48,48,48)"/>
</g>
</g>
</g>
</g>
<g transform="matrix(1.0511, 0, 0, 1.05301, 4326.94, 3380.41)">
<g>
<g>
<g>
<path d="M557.816,620.368L557.816,421.43L631.033,301.891L752.878,301.891L557.816,620.368Z" fill="rgb(62,62,62)"/>
</g>
</g>
</g>
</g>
<g transform="matrix(1.0511, 0, 0, 1.05301, 4326.94, 3380.41)">
<g>
<g>
<g>
<path d="M557.816,831.701L557.816,737.337L824.514,301.891L882.305,301.891L557.816,831.701Z" fill="rgb(62,62,62)"/>
</g>
</g>
</g>
</g>
</g>
</g>
</g>
</g>
<g transform="matrix(1, 0, 0, 1, -4258.15, -3403.1)">
<g>
<g>
<g>
<g transform="matrix(1.0511, 0, 0, 1.19798, 4213.52, 3271.66)">
<g>
<g>
<g>
<path d="M2500.9,407.042L2500.9,161.575L1835.61,161.575L1835.61,407.042" fill="rgb(48,48,48)" style="stroke-miterlimit:4;" stroke-width="11.1111" stroke="rgb(48,48,48)"/>
</g>
</g>
</g>
</g>
<g transform="matrix(1.0511, 0, 0, 1.05301, 4213.52, 3297.86)">
<g>
<g>
<g>
<path d="M2405.6,382.307L2405.6,209.162L2310.66,209.162L2310.66,332.837L2215.73,332.837L2215.73,209.162L2120.8,209.162L2120.8,332.837L2025.86,332.837L2025.86,209.162L1930.93,209.162L1930.93,332.837" fill="rgb(0,132,132)" style="stroke-miterlimit:4;" stroke-width="11.1111" stroke="rgb(75,75,75)" fill-opacity="0"/>
</g>
</g>
</g>
</g>
<g transform="matrix(1.03994, 0, 0, 1.04147, 4233.81, 3302.63)">
<g>
<g>
<g>
<rect height="751.271" x="1819.33" y="414.284" fill="rgb(228,227,215)" width="706.176"/>
</g>
</g>
</g>
</g>
<g transform="matrix(1.0511, 0, 0, 1.05301, 4326.94, 3380.41)">
<g>
<g>
<g>
<path d="M1711.43,797.649L1711.43,598.711L1872.4,335.901L1994.24,335.901L1711.43,797.649Z" fill="rgb(236,235,226)"/>
</g>
</g>
</g>
</g>
<g transform="matrix(1.0511, 0, 0, 1.05301, 4326.94, 3380.41)">
<g>
<g>
<g>
<path d="M1711.43,1008.98L1711.43,914.618L2065.88,335.901L2123.67,335.901L1711.43,1008.98Z" fill="rgb(236,235,226)"/>
</g>
</g>
</g>
</g>
<g transform="matrix(1.0511, 0, 0, 1.05301, 4213.52, 3297.86)">
<g>
<g>
<g>
<path d="M2518.15,414.834L1819.28,414.586" fill="none" style="stroke-linecap:butt;stroke-linejoin:miter;" stroke-width="11.1111" stroke="rgb(197,195,170)"/>
</g>
</g>
</g>
</g>
<g transform="matrix(1.0511, 0, 0, 1.05301, 4213.52, 3297.86)">
<g>
<g>
<g>
<path d="M1829.09,407.564L1829.34,1157.34" fill="none" style="stroke-linecap:butt;stroke-linejoin:miter;" stroke-width="16.6667" stroke="rgb(212,210,191)"/>
</g>
</g>
</g>
</g>
</g>
</g>
</g>
</g>
</g>
</g><path stroke='#8c8c8c' stroke-width='29.88' stroke-linecap='round' stroke-linejoin='round' fill='none' d='M701.423,1726.9L701.423,1385.01' />
<path stroke='#8c8c8c' stroke-width='29.88' stroke-linecap='round' stroke-linejoin='round' fill='none' d='M601.393,1726.9L601.393,1385.01' />
<g partID='57850'><g transform='translate(764.293,2132.55)' ><g transform='matrix(-1,0,0,-1,0,0)'  ><g xmlns="http://www.w3.org/2000/svg" id="breadboard">
 <rect xmlns="http://www.w3.org/2000/svg" height="10" x="47.93" y="353.07" fill="none" id="connector0pin" width="29.89"/>
 <rect xmlns="http://www.w3.org/2000/svg" height="10" x="147.93" y="353.07" fill="none" id="connector1pin" width="29.92"/>
 <g xmlns="http://www.w3.org/2000/svg" fill="none" id="connector0leg" y1="40.565" y2="74.754" stroke-linecap="round" x1="6.287" stroke-width="29.88" x2="6.287" stroke="#8C8C8C"/>
 <g xmlns="http://www.w3.org/2000/svg" fill="none" id="connector1leg" y1="40.565" y2="74.754" stroke-linecap="round" x1="16.29" stroke-width="29.88" x2="16.29" stroke="#8C8C8C"/>
 <rect xmlns="http://www.w3.org/2000/svg" height="136.49" x="47.93" y="269.16" fill="#8C8C8C" width="29.88"/>
 <path xmlns="http://www.w3.org/2000/svg" d="M177.84,405.65c0,-16.3,-14.79,-29.2,-29,-41.55c-5.78,-5.1,-16.66,-13.91,-16.66,-19.79l0,-75.98l-30.02,0l0,80.28c0,14.7,13.16,26.09,27.03,38.17c6.17,5.22,18.73,17.36,18.73,24.58" fill="#8C8C8C"/>
 <g xmlns="http://www.w3.org/2000/svg" id="g12">
  <path xmlns="http://www.w3.org/2000/svg" d="M196.85,180.57L196.85,98.45C196.85,44.1,152.85,0,98.44,0C44.1,0,0,44.02,0,98.45l0,189.57c20.47,22.93,56.9,38.23,98.44,38.23c64.16,0,116.23,-36.36,116.23,-81.38l0,-21.16C214.66,207.84,208.08,193.1,196.85,180.57z" fill="#ff0000" id="color_path14" opacity="0.3"/>
  <path xmlns="http://www.w3.org/2000/svg" d="M196.85,180.57L196.85,98.45C196.85,44.1,152.85,0,98.44,0C44.1,0,0,44.02,0,98.45l0,189.57c20.47,22.93,56.9,38.23,98.44,38.23c64.16,0,116.23,-36.36,116.23,-81.38l0,-21.16C214.66,207.84,208.08,193.1,196.85,180.57z" fill="#E6E6E6" id="path16" opacity="0.5"/>
  <path xmlns="http://www.w3.org/2000/svg" d="M196.85,180.57l0,43.13c0,38.04,-43.97,68.96,-98.41,68.96C44.1,292.66,0,261.84,0,223.7l0,43.13L0,288c20.47,22.94,56.9,38.23,98.44,38.23c64.16,0,116.23,-36.36,116.23,-81.37L214.67,223.7C214.66,207.84,208.08,193.1,196.85,180.57z" fill="#D1D1D1" id="path18" opacity="0.9"/>
  <path xmlns="http://www.w3.org/2000/svg" d="M196.85,180.57l0,43.13c0,38.04,-43.97,68.96,-98.41,68.96C44.1,292.66,0,261.84,0,223.7l0,43.13L0,288c20.47,22.94,56.9,38.23,98.44,38.23c64.16,0,116.23,-36.36,116.23,-81.37L214.67,223.7C214.66,207.84,208.08,193.1,196.85,180.57z" fill="#ff0000" id="color_path20" opacity="0.7"/>
  <path xmlns="http://www.w3.org/2000/svg" d="M196.85,180.57l0,43.13c0,38.04,-43.97,68.96,-98.41,68.96C44.1,292.66,0,261.84,0,223.7l0,43.13c20.47,22.92,56.9,38.23,98.44,38.23c64.16,0,116.23,-36.36,116.23,-81.37C214.66,207.84,208.08,193.1,196.85,180.57z" fill="#ff0000" id="color_path22" opacity="0.25"/>
  <ellipse xmlns="http://www.w3.org/2000/svg" rx="98.43" ry="68.9" fill="#E6E6E6" id="ellipse24" cx="98.44" opacity="0.25" cy="223.7"/>
  <ellipse xmlns="http://www.w3.org/2000/svg" rx="98.43" ry="68.9" fill="#ff0000" id="color_ellipse26" cx="98.44" opacity="0.25" cy="223.7"/>
  <polygon xmlns="http://www.w3.org/2000/svg" points="30.6,134,30.6,223.71,44.39,223.71,44.39,181.87,83.55,181.87,139.06,122.29,47.32,122.29" fill="#666666" id="polygon28"/>
  <polygon xmlns="http://www.w3.org/2000/svg" points="149.7,118.39,155.76,125.47,102.94,181.87,153.61,181.87,153.61,223.71,166.3,223.71,166.3,118.39" fill="#666666" id="polygon30"/>
  <path xmlns="http://www.w3.org/2000/svg" d="M196.85,180.57L196.85,98.45C196.85,44.1,152.85,0,98.44,0C44.1,0,0,44.02,0,98.45l0,189.57c20.47,22.93,56.9,38.23,98.44,38.23c64.16,0,116.23,-36.36,116.23,-81.38l0,-21.16C214.66,207.84,208.08,193.1,196.85,180.57z" fill="#ff0000" id="color_path32" opacity="0.65"/>
  <path xmlns="http://www.w3.org/2000/svg" d="M144.28,52.14l19.95,-3.8c-11.69,-15.72,-28.92,-27.19,-49.19,-31.09l3.53,15.01C129.18,36.02,138.11,43.1,144.28,52.14z" fill="#FFFFFF" id="path34" opacity="0.5"/>
  <path xmlns="http://www.w3.org/2000/svg" d="M10.67,276.75l0,21.11c9.01,7.35,19.91,13.56,32.05,18.29l0,-21.18C30.52,290.3,19.71,284.11,10.67,276.75z" fill="#FFFFFF" id="path36" opacity="0.5"/>
  <path xmlns="http://www.w3.org/2000/svg" d="M153.79,280.69c-3.55,1.7,-7.36,3.19,-11.19,4.58c-0.81,0.27,-1.63,0.56,-2.47,0.81c-7.83,2.49,-16.13,4.43,-24.93,5.48c-1.04,0.13,-2.1,0.26,-3.12,0.27c-4.45,0.42,-8.94,0.81,-13.48,0.81c-2.06,0,-4.27,-0.21,-6.55,-0.33c-16.67,-0.79,-32.37,-4.37,-45.8,-10.27L46.25,165.52L46.25,98.5c0,-20.43,11.78,-37.91,28.8,-46.52L74.74,51.24l-17.33,-21c-23.19,13.93,-38.75,39.2,-38.75,68.22l0,165.35c-0.69,-0.69,-4.28,-4.29,-6.67,-7.36l-4.27,9.55c19.46,20.58,52.9,34.19,90.87,34.19c23.33,0,44.96,-5.19,62.66,-13.92l-7.32,-5.68C153.79,280.69,153.79,280.69,153.79,280.69z" fill="#FFFFFF" id="path38" opacity="0.5"/>
 </g>
</g>
</g></g></g></svg>