<?xml version="1.0" encoding="UTF-8" standalone="no"?>
<!DOCTYPE svg PUBLIC "-//W3C//DTD SVG 1.1//EN" "http://www.w3.org/Graphics/SVG/1.1/DTD/svg11.dtd">
<svg width="100%" height="100%" viewBox="0 0 22 24" version="1.1" xmlns="http://www.w3.org/2000/svg" xmlns:xlink="http://www.w3.org/1999/xlink" xml:space="preserve" xmlns:serif="http://www.serif.com/" style="fill-rule:evenodd;clip-rule:evenodd;stroke-linecap:round;stroke-linejoin:round;stroke-miterlimit:1.5;">
    <g id="connectors" transform="matrix(1,0,0,1,-322.948,-247.648)">
        <g id="connector11pin" transform="matrix(0.110141,0,0,0.240352,296.174,186.609)">
            <circle cx="361.049" cy="349.92" r="2.409" style="fill:rgb(219,219,219);"/>
        </g>
        <g id="connector10pin" transform="matrix(0.110141,0,0,0.240352,296.174,186.609)">
            <circle cx="353.849" cy="349.92" r="2.409" style="fill:rgb(219,219,219);"/>
        </g>
        <g id="connector9pin" transform="matrix(0.110141,0,0,0.240352,296.174,186.609)">
            <circle cx="346.649" cy="349.92" r="2.409" style="fill:rgb(219,219,219);"/>
        </g>
        <g id="connector8pin" transform="matrix(0.110141,0,0,0.240352,296.174,186.609)">
            <circle cx="339.449" cy="349.92" r="2.409" style="fill:rgb(219,219,219);"/>
        </g>
        <g id="connector7pin" transform="matrix(0.110141,0,0,0.240352,296.174,186.609)">
            <circle cx="332.249" cy="349.92" r="2.409" style="fill:rgb(219,219,219);"/>
        </g>
        <g id="connector6pin" transform="matrix(0.110141,0,0,0.240352,296.174,186.609)">
            <circle cx="325.049" cy="349.92" r="2.409" style="fill:rgb(219,219,219);"/>
        </g>
        <g id="connector5pin" transform="matrix(0.110141,0,0,0.240352,296.174,186.609)">
            <circle cx="317.849" cy="349.92" r="2.409" style="fill:rgb(219,219,219);"/>
        </g>
        <g id="connector4pin" transform="matrix(0.110141,0,0,0.240352,296.174,186.609)">
            <circle cx="310.649" cy="349.92" r="2.409" style="fill:rgb(219,219,219);"/>
        </g>
        <g id="connector3pin" transform="matrix(0.110141,0,0,0.240352,296.174,186.609)">
            <circle cx="303.449" cy="349.92" r="2.409" style="fill:rgb(219,219,219);"/>
        </g>
        <g id="connector2pin" transform="matrix(0.110141,0,0,0.240352,296.174,186.609)">
            <circle cx="296.249" cy="349.92" r="2.409" style="fill:rgb(219,219,219);"/>
        </g>
        <g id="connector1pin" transform="matrix(0.110141,0,0,0.240352,296.174,186.609)">
            <circle cx="289.049" cy="349.92" r="2.409" style="fill:rgb(219,219,219);"/>
        </g>
        <g id="connector0pin" transform="matrix(0.110141,0,0,0.240352,296.174,186.609)">
            <circle cx="281.849" cy="349.92" r="2.409" style="fill:rgb(219,219,219);"/>
        </g>
        <g id="button" transform="matrix(0.104787,0,0,0.228252,325.81,251.81)">
            <path d="M2.508,-17.719C2.479,-17.723 1.24,-17.974 0,-17.974C-1.24,-17.974 -2.479,-17.723 -2.508,-17.719C-2.665,-17.342 -2.776,-16.952 -2.841,-16.549C-3.132,-16.499 -3.421,-16.442 -3.708,-16.377C-3.922,-16.724 -4.174,-17.042 -4.463,-17.33C-4.576,-17.301 -4.688,-17.271 -4.799,-17.24C-4.906,-16.846 -4.965,-16.445 -4.977,-16.037C-5.258,-15.949 -5.538,-15.855 -5.814,-15.753C-6.072,-16.069 -6.363,-16.351 -6.687,-16.599C-6.795,-16.556 -6.902,-16.511 -7.009,-16.466C-7.063,-16.061 -7.069,-15.656 -7.028,-15.25C-7.295,-15.127 -7.56,-14.996 -7.82,-14.859C-8.117,-15.139 -8.443,-15.381 -8.797,-15.584C-8.898,-15.527 -8.998,-15.469 -9.098,-15.41C-9.099,-15.002 -9.052,-14.599 -8.958,-14.202C-9.207,-14.045 -9.452,-13.881 -9.693,-13.711C-10.024,-13.95 -10.378,-14.147 -10.755,-14.302C-10.848,-14.233 -10.94,-14.162 -11.031,-14.091C-10.979,-13.686 -10.88,-13.293 -10.735,-12.911C-10.962,-12.723 -11.183,-12.529 -11.4,-12.329C-11.759,-12.522 -12.136,-12.671 -12.53,-12.776C-12.613,-12.695 -12.695,-12.613 -12.776,-12.53C-12.671,-12.136 -12.522,-11.759 -12.329,-11.4C-12.529,-11.183 -12.723,-10.962 -12.911,-10.735C-13.293,-10.88 -13.686,-10.979 -14.091,-11.031C-14.162,-10.94 -14.233,-10.848 -14.302,-10.755C-14.147,-10.378 -13.95,-10.024 -13.711,-9.693C-13.881,-9.452 -14.045,-9.207 -14.202,-8.958C-14.599,-9.052 -15.002,-9.099 -15.41,-9.098C-15.469,-8.998 -15.527,-8.898 -15.584,-8.797C-15.381,-8.443 -15.139,-8.117 -14.859,-7.82C-14.996,-7.56 -15.127,-7.295 -15.25,-7.028C-15.656,-7.069 -16.061,-7.063 -16.466,-7.009C-16.511,-6.902 -16.556,-6.795 -16.599,-6.687C-16.351,-6.363 -16.069,-6.072 -15.753,-5.814C-15.855,-5.538 -15.949,-5.258 -16.037,-4.977C-16.445,-4.965 -16.846,-4.906 -17.24,-4.799C-17.271,-4.688 -17.301,-4.576 -17.33,-4.463C-17.042,-4.174 12.671,-12.136 12.776,-12.53C12.695,-12.613 12.613,-12.695 12.53,-12.776C12.136,-12.671 11.759,-12.522 11.4,-12.329C11.183,-12.529 10.962,-12.723 10.735,-12.911C10.88,-13.293 10.979,-13.686 11.031,-14.091C10.94,-14.162 10.848,-14.233 10.755,-14.302C10.378,-14.147 10.024,-13.95 9.693,-13.711C9.452,-13.881 9.207,-14.045 8.958,-14.202C9.052,-14.599 9.099,-15.002 9.098,-15.41C8.998,-15.469 8.898,-15.527 8.797,-15.584C8.443,-15.381 8.117,-15.139 7.82,-14.859C7.56,-14.996 7.295,-15.127 7.028,-15.25C7.069,-15.656 7.063,-16.061 7.009,-16.466C6.902,-16.511 6.795,-16.556 6.687,-16.599C6.363,-16.351 6.072,-16.069 5.814,-15.753C5.538,-15.855 5.258,-15.949 4.977,-16.037C4.965,-16.445 4.906,-16.846 4.799,-17.24C4.688,-17.271 4.576,-17.301 4.463,-17.33C4.174,-17.042 3.922,-16.724 3.708,-16.377C3.421,-16.442 3.132,-16.499 2.841,-16.549C2.776,-16.952 2.665,-17.342 2.508,-17.719Z" style="stroke:black;stroke-width:1px;"/>
        </g>
        <g transform="matrix(0.104787,0,0,0.228252,322.113,246.405)">
            <rect x="8.184" y="49.767" width="7.376" height="18.014" style="fill:rgb(219,219,219);stroke:rgb(219,219,219);stroke-width:1px;stroke-linecap:butt;stroke-linejoin:miter;"/>
        </g>
        <g transform="matrix(0.117499,0,0,0.235319,321.664,244.047)">
            <rect x="43.559" y="105.966" width="81.928" height="9.891" style="fill:rgb(48,48,48);"/>
        </g>
        <g transform="matrix(0.110141,0,0,0.240352,322.083,245.96)">
            <path d="M204.136,30.615C204.136,30.296 204.129,29.978 204.113,29.662C203.609,19.212 194.86,10.773 184.294,10.773L184.289,10.772L29.806,10.772L29.806,10.773C20.172,10.773 12.048,17.789 10.308,26.948C10.082,28.138 9.963,29.364 9.963,30.615L9.963,30.608L9.963,85.749C9.963,96.634 18.92,105.591 29.806,105.591L29.806,105.588L42.557,105.588L48.23,98.64L124.198,98.64L129.864,105.588L184.289,105.588L184.294,105.591C195.179,105.591 204.136,96.634 204.136,85.749L204.132,85.745L204.132,30.608" style="fill:rgb(70,135,185);"/>
        </g>
        <g transform="matrix(0.110141,0,0,0.240352,296.174,180.417)">
            <path d="M353.304,367.207L351.36,367.207" style="fill:rgb(0,132,132);fill-opacity:0;fill-rule:nonzero;stroke:white;stroke-width:0.57px;stroke-miterlimit:4;"/>
        </g>
        <g transform="matrix(0.110141,0,0,0.240352,296.174,180.417)">
            <path d="M352.332,367.207L352.332,363.801L352.008,364.291L351.684,364.615L351.36,364.773" style="fill:rgb(0,132,132);fill-opacity:0;fill-rule:nonzero;stroke:white;stroke-width:0.57px;stroke-miterlimit:4;"/>
        </g>
        <g transform="matrix(0.110141,0,0,0.240352,296.174,180.417)">
            <path d="M355.406,363.801L355.73,363.801L356.054,363.967L356.213,364.125L356.378,364.449L356.537,365.097L356.537,365.911L356.378,366.559L356.213,366.883L356.054,367.041L355.73,367.207L355.406,367.207L355.082,367.041L354.917,366.883L354.758,366.559L354.593,365.911L354.593,365.097L354.758,364.449L354.917,364.125L355.082,363.967L355.406,363.801" style="fill:rgb(0,132,132);fill-opacity:0;fill-rule:nonzero;stroke:white;stroke-width:0.57px;stroke-miterlimit:4;"/>
        </g>
        <g transform="matrix(0.110141,0,0,0.240352,296.174,180.417)">
            <path d="M360.504,367.207L358.56,367.207" style="fill:rgb(0,132,132);fill-opacity:0;fill-rule:nonzero;stroke:white;stroke-width:0.57px;stroke-miterlimit:4;"/>
        </g>
        <g transform="matrix(0.110141,0,0,0.240352,296.174,180.417)">
            <path d="M359.532,367.207L359.532,363.801L359.208,364.291L358.884,364.615L358.56,364.773" style="fill:rgb(0,132,132);fill-opacity:0;fill-rule:nonzero;stroke:white;stroke-width:0.57px;stroke-miterlimit:4;"/>
        </g>
        <g transform="matrix(0.110141,0,0,0.240352,296.174,180.417)">
            <path d="M363.737,367.207L361.793,367.207" style="fill:rgb(0,132,132);fill-opacity:0;fill-rule:nonzero;stroke:white;stroke-width:0.57px;stroke-miterlimit:4;"/>
        </g>
        <g transform="matrix(0.110141,0,0,0.240352,296.174,180.417)">
            <path d="M362.765,367.207L362.765,363.801L362.441,364.291L362.117,364.615L361.793,364.773" style="fill:rgb(0,132,132);fill-opacity:0;fill-rule:nonzero;stroke:white;stroke-width:0.57px;stroke-miterlimit:4;"/>
        </g>
        <g transform="matrix(0.110141,0,0,0.240352,296.174,180.417)">
            <path d="M346.104,367.207L346.752,367.207L347.069,367.041L347.234,366.883L347.558,366.393L347.717,365.745L347.717,364.449L347.558,364.125L347.393,363.967L347.069,363.801L346.428,363.801L346.104,363.967L345.938,364.125L345.78,364.449L345.78,365.263L345.938,365.587L346.104,365.745L346.428,365.911L347.069,365.911L347.393,365.745L347.558,365.587L347.717,365.263" style="fill:rgb(0,132,132);fill-opacity:0;fill-rule:nonzero;stroke:white;stroke-width:0.57px;stroke-miterlimit:4;"/>
        </g>
        <g transform="matrix(0.110141,0,0,0.240352,296.174,180.417)">
            <path d="M339.228,365.263L338.904,365.097L338.738,364.939L338.58,364.615L338.58,364.449L338.738,364.125L338.904,363.967L339.228,363.801L339.869,363.801L340.193,363.967L340.358,364.125L340.517,364.449L340.517,364.615L340.358,364.939L340.193,365.097L339.869,365.263L339.228,365.263L338.904,365.421L338.738,365.587L338.58,365.911L338.58,366.559L338.738,366.883L338.904,367.041L339.228,367.207L339.869,367.207L340.193,367.041L340.358,366.883L340.517,366.559L340.517,365.911L340.358,365.587L340.193,365.421L339.869,365.263" style="fill:rgb(0,132,132);fill-opacity:0;fill-rule:nonzero;stroke:white;stroke-width:0.57px;stroke-miterlimit:4;"/>
        </g>
        <g transform="matrix(0.110141,0,0,0.240352,296.174,180.417)">
            <path d="M331.214,363.801L333.482,363.801L332.028,367.207" style="fill:rgb(0,132,132);fill-opacity:0;fill-rule:nonzero;stroke:white;stroke-width:0.57px;stroke-miterlimit:4;"/>
        </g>
        <g transform="matrix(0.110141,0,0,0.240352,296.174,180.417)">
            <path d="M325.793,363.801L325.152,363.801L324.828,363.967L324.662,364.125L324.338,364.615L324.18,365.263L324.18,366.559L324.338,366.883L324.504,367.041L324.828,367.207L325.469,367.207L325.793,367.041L325.958,366.883L326.117,366.559L326.117,365.745L325.958,365.421L325.793,365.263L325.469,365.097L324.828,365.097L324.504,365.263L324.338,365.421L324.18,365.745" style="fill:rgb(0,132,132);fill-opacity:0;fill-rule:nonzero;stroke:white;stroke-width:0.57px;stroke-miterlimit:4;"/>
        </g>
        <g transform="matrix(0.110141,0,0,0.240352,296.174,180.417)">
            <path d="M318.758,363.801L317.138,363.801L316.98,365.421L317.138,365.263L317.462,365.097L318.269,365.097L318.593,365.263L318.758,365.421L318.917,365.745L318.917,366.559L318.758,366.883L318.593,367.041L318.269,367.207L317.462,367.207L317.138,367.041L316.98,366.883" style="fill:rgb(0,132,132);fill-opacity:0;fill-rule:nonzero;stroke:white;stroke-width:0.57px;stroke-miterlimit:4;"/>
        </g>
        <g transform="matrix(0.110141,0,0,0.240352,296.174,180.417)">
            <path d="M311.393,364.939L311.393,367.207" style="fill:rgb(0,132,132);fill-opacity:0;fill-rule:nonzero;stroke:white;stroke-width:0.57px;stroke-miterlimit:4;"/>
        </g>
        <g transform="matrix(0.110141,0,0,0.240352,296.174,180.417)">
            <path d="M310.586,363.643L309.78,366.069L311.882,366.069" style="fill:rgb(0,132,132);fill-opacity:0;fill-rule:nonzero;stroke:white;stroke-width:0.57px;stroke-miterlimit:4;"/>
        </g>
        <g transform="matrix(0.110141,0,0,0.240352,296.174,180.417)">
            <path d="M302.414,363.801L304.517,363.801L303.386,365.097L303.869,365.097L304.193,365.263L304.358,365.421L304.517,365.745L304.517,366.559L304.358,366.883L304.193,367.041L303.869,367.207L302.904,367.207L302.58,367.041L302.414,366.883" style="fill:rgb(0,132,132);fill-opacity:0;fill-rule:nonzero;stroke:white;stroke-width:0.57px;stroke-miterlimit:4;"/>
        </g>
        <g transform="matrix(0.110141,0,0,0.240352,296.174,180.417)">
            <path d="M295.38,364.125L295.538,363.967L295.862,363.801L296.669,363.801L296.993,363.967L297.158,364.125L297.317,364.449L297.317,364.773L297.158,365.263L295.214,367.207L297.317,367.207" style="fill:rgb(0,132,132);fill-opacity:0;fill-rule:nonzero;stroke:white;stroke-width:0.57px;stroke-miterlimit:4;"/>
        </g>
        <g transform="matrix(0.110141,0,0,0.240352,296.174,180.417)">
            <path d="M290.117,367.207L288.18,367.207" style="fill:rgb(0,132,132);fill-opacity:0;fill-rule:nonzero;stroke:white;stroke-width:0.57px;stroke-miterlimit:4;"/>
        </g>
        <g transform="matrix(0.110141,0,0,0.240352,296.174,180.417)">
            <path d="M289.152,367.207L289.152,363.801L288.828,364.291L288.504,364.615L288.18,364.773" style="fill:rgb(0,132,132);fill-opacity:0;fill-rule:nonzero;stroke:white;stroke-width:0.57px;stroke-miterlimit:4;"/>
        </g>
        <g transform="matrix(0.110141,0,0,0.240352,296.174,180.417)">
            <path d="M281.786,363.801L282.11,363.801L282.434,363.967L282.593,364.125L282.758,364.449L282.917,365.097L282.917,365.911L282.758,366.559L282.593,366.883L282.434,367.041L282.11,367.207L281.786,367.207L281.462,367.041L281.304,366.883L281.138,366.559L280.98,365.911L280.98,365.097L281.138,364.449L281.304,364.125L281.462,363.967L281.786,363.801" style="fill-opacity:0;fill-rule:nonzero;stroke:white;stroke-width:0.57px;stroke-miterlimit:4;"/>
        </g>
        <g transform="matrix(0.110141,0,0,0.240352,296.174,180.417)">
            <path d="M372.773,363.117L372.845,363.204L372.873,363.326L372.873,363.348L372.866,363.412L372.823,363.477L372.751,363.571L372.679,363.65L372.593,363.736L372.535,363.808L372.513,363.852L372.513,363.866L372.557,363.888L372.629,363.938L372.737,364.003L372.83,364.068L373.154,364.327L373.464,364.629L373.752,364.968L373.997,365.32L374.191,365.688L374.205,365.702L374.313,365.947L372.989,367.272L371.664,368.596L371.505,368.582L371.304,368.582L371.124,368.64L370.973,368.74L370.857,368.87L370.785,369.036L370.757,369.216L370.785,369.403L370.85,369.54L370.958,369.676L371.081,369.777L371.16,369.82L371.304,369.849L371.477,369.849L371.642,369.813L371.707,369.784L371.837,369.691L371.937,369.561L372.017,369.41L372.053,369.252L372.038,369.1L372.031,369.072L372.024,369.057L372.024,369.036L372.031,369.014L372.053,368.978L372.081,368.935L372.132,368.877L372.197,368.805L372.29,368.704L372.405,368.582L372.549,368.438L372.729,368.258L372.938,368.042L373.19,367.79L373.485,367.502L373.507,367.48L373.802,367.185L374.061,366.926L374.277,366.71L374.457,366.53L374.609,366.379L374.738,366.264L374.839,366.17L374.918,366.098L374.976,366.048L375.026,366.012L375.062,365.99L375.091,365.976L375.113,365.968L375.127,365.968L375.221,365.983L375.293,366.033L375.329,366.069L375.372,366.134L375.393,366.192L375.393,366.256L375.357,366.336L375.285,366.429L375.185,366.552L375.033,366.703L374.983,366.753L374.601,367.142L374.58,367.567L374.537,368.042L374.45,368.481L374.313,368.899L374.169,369.237L373.91,369.684L373.615,370.087L373.269,370.447L372.888,370.764L372.47,371.03L372.017,371.246L371.527,371.412L371.304,371.462L371.145,371.491L370.937,371.512L370.706,371.527L370.469,371.527L370.231,371.527L370.022,371.52L369.857,371.505L369.835,371.498L369.417,371.404L369.014,371.275L368.64,371.116L368.395,370.98L368.193,370.857L368.006,371.03L367.905,371.116L367.826,371.174L367.761,371.196L367.718,371.196L367.596,371.174L367.509,371.095L367.459,370.98L367.452,370.929L367.452,370.9L367.459,370.879L367.473,370.85L367.502,370.807L367.538,370.756L367.596,370.692L367.668,370.612L367.769,370.504L367.891,370.382L368.042,370.224L368.229,370.036L368.445,369.813L368.705,369.554L369.007,369.259L369.029,369.23L370.598,367.653L370.749,367.675L370.944,367.675L371.124,367.624L371.275,367.538L371.39,367.416L371.477,367.272L371.52,367.113L371.52,366.948L371.469,366.782L371.376,366.631L371.289,366.537L371.117,366.436L370.937,366.393L370.749,366.408L370.569,366.472L370.44,366.573L370.332,366.696L370.267,366.832L370.245,366.998L370.245,367.099L370.26,367.279L368.827,368.719L367.387,370.152L367.293,370.044L367.063,369.727L366.854,369.374L366.674,368.978L366.53,368.568L366.444,368.251L366.408,368.006L366.386,367.725L366.372,367.43L366.379,367.142L366.401,366.876L366.429,366.688L366.566,366.184L366.753,365.709L366.984,365.27L367.272,364.867L367.581,364.528L367.963,364.19L368.373,363.902L368.813,363.679L369.273,363.506L369.756,363.398L370.26,363.348L370.469,363.34L370.67,363.348L370.865,363.355L371.045,363.369L371.203,363.391L371.311,363.412L371.361,363.434L371.347,363.456L371.289,363.528L371.189,363.636L371.052,363.787L370.872,363.967L370.656,364.19L370.397,364.449L370.181,364.672L368.957,365.889L368.733,365.882L368.597,365.882L368.503,365.896L368.424,365.925L368.381,365.947L368.229,366.069L368.121,366.213L368.071,366.379L368.057,366.559L368.093,366.724L368.172,366.883L368.301,367.02L368.438,367.099L368.618,367.149L368.798,367.142L368.978,367.084L369.129,366.984L369.23,366.876L369.273,366.796L369.302,366.724L369.317,366.631L369.317,366.501L369.317,366.494L369.317,366.249L370.901,364.665L371.16,364.406L371.412,364.161L371.649,363.931L371.858,363.715L372.053,363.528L372.218,363.369L372.355,363.24L372.463,363.146L372.528,363.088L372.549,363.074L372.672,363.067L372.773,363.117" style="fill:white;"/>
        </g>
        <g transform="matrix(0.110141,0,0,0.240352,296.174,180.417)">
            <path d="M380.945,364.262L381.168,364.291L381.175,364.291L381.6,364.406L382.003,364.572L382.37,364.788L382.716,365.054L383.018,365.356L383.285,365.702L383.501,366.076L383.666,366.48L383.724,366.674L383.753,366.804L383.774,366.919L383.789,367.034L383.803,367.164L383.803,367.862L383.789,367.992L383.774,368.1L383.753,368.208L383.724,368.316L383.587,368.726L383.407,369.1L383.177,369.439L382.946,369.712L382.608,370.029L382.241,370.288L381.845,370.49L381.427,370.641L381.247,370.684L381.06,370.713L380.829,370.735L380.592,370.742L380.361,370.742L380.16,370.735L380.117,370.728L379.685,370.641L379.274,370.497L378.9,370.296L378.54,370.036L378.295,369.813L378.043,369.547L377.834,369.273L377.669,368.985L377.611,368.877L377.489,368.575L377.402,368.28L377.345,367.977L377.323,367.653L378.554,367.653L378.605,367.977L378.713,368.301L378.842,368.553L379.008,368.784L379.224,369L379.476,369.194L379.742,369.345L380.009,369.446L380.059,369.46L380.225,369.489L380.426,369.504L380.642,369.504L380.844,369.489L381.017,369.468L381.06,369.46L381.348,369.36L381.607,369.223L381.859,369.028L381.981,368.913L382.212,368.654L382.377,368.38L382.5,368.1L382.565,367.783L382.579,367.502L382.55,367.149L382.471,366.818L382.327,366.508L382.125,366.22L381.981,366.062L381.708,365.832L381.405,365.659L381.089,365.544L380.743,365.486L380.455,365.479L380.109,365.529L379.793,365.63L379.505,365.774L379.245,365.961L379.022,366.192L378.842,366.444L378.698,366.724L378.605,367.02L378.554,367.336L378.554,367.653L377.323,367.653L377.33,367.185L377.395,366.753L377.51,366.336L377.683,365.954L377.921,365.594L378.209,365.248L378.324,365.133L378.677,364.838L379.058,364.6L379.461,364.42L379.706,364.341L379.915,364.298L380.153,364.269L380.419,364.255L380.693,364.255L380.945,364.262" style="fill:white;"/>
        </g>
        <g transform="matrix(0.110141,0,0,0.240352,296.174,180.417)">
            <path d="M385.538,362.512L385.697,362.592L385.826,362.707L385.891,362.808L385.913,362.844L385.927,362.887L385.934,362.937L385.941,363.009L385.949,363.11L385.949,363.24L385.956,363.405L385.956,364.939L386.165,364.795L386.474,364.608L386.805,364.449L387.144,364.334L387.245,364.312L387.338,364.291L387.439,364.276L387.561,364.269L388.382,364.269L388.505,364.276L388.605,364.291L388.699,364.305L388.872,364.348L389.282,364.5L389.649,364.694L389.988,364.932L390.305,365.22L390.607,365.558L390.845,365.911L391.025,366.292L391.154,366.703L391.226,367.135L391.233,367.308L391.233,367.768L391.169,368.208L391.053,368.625L390.873,369.021L390.643,369.388L390.348,369.727L390.261,369.813L389.93,370.101L389.585,370.332L389.225,370.512L388.836,370.641L388.663,370.684L388.476,370.713L388.253,370.735L388.008,370.742L387.777,370.742L387.576,370.735L387.533,370.728L387.101,370.641L386.697,370.497L386.323,370.296L385.963,370.044L385.653,369.756L385.538,369.626L385.416,369.489L385.322,369.367L385.257,369.28L385.113,369.036L384.984,368.762L384.876,368.481L384.825,368.316L384.811,368.265L384.797,368.222L384.789,368.172L384.782,368.114L384.775,368.042L384.768,367.956L384.761,367.848L384.761,367.718L384.753,367.56L384.753,367.524L385.97,367.524L386.006,367.869L386.093,368.193L386.237,368.503L386.424,368.776L386.654,369.021L386.935,369.223L387.245,369.374L387.489,369.46L387.641,369.489L387.835,369.504L388.051,369.504L388.253,369.496L388.425,369.475L388.476,369.46L388.749,369.367L389.016,369.223L389.275,369.043L389.498,368.827L389.678,368.604L389.707,368.553L389.865,368.244L389.966,367.912L390.009,367.581L389.995,367.25L389.916,366.904L389.786,366.588L389.613,366.307L389.397,366.055L389.145,365.846L388.865,365.68L388.562,365.558L388.238,365.486L387.9,365.472L387.569,365.515L387.259,365.608L386.964,365.76L386.69,365.954L386.46,366.184L386.265,366.444L386.179,366.595L386.085,366.818L386.021,367.012L385.985,367.214L385.97,367.43L385.97,367.524L384.753,367.524L384.753,367.358L384.753,367.128L384.746,366.854L384.746,366.523L384.746,366.148L384.746,365.716L384.739,365.493L384.739,365.025L384.739,364.615L384.739,364.262L384.739,363.952L384.739,363.693L384.739,363.477L384.746,363.297L384.746,363.153L384.753,363.038L384.761,362.944L384.775,362.872L384.789,362.815L384.804,362.779L384.825,362.743L384.854,362.714L384.876,362.685L384.905,362.656L385.041,362.548L385.2,362.491L385.373,362.476L385.538,362.512" style="fill:white;"/>
        </g>
        <g transform="matrix(0.110141,0,0,0.240352,296.174,180.417)">
            <path d="M395.597,364.276L395.978,364.348L396.345,364.478L396.705,364.665L396.741,364.687L397.087,364.932L397.397,365.227L397.663,365.558L397.879,365.918L398.045,366.3L398.16,366.703L398.196,366.933L398.203,367.034L398.21,367.178L398.21,367.365L398.217,367.596L398.225,367.848L398.225,369.259L398.217,369.518L398.217,369.756L398.21,369.957L398.21,370.123L398.203,370.238L398.196,370.296L398.117,370.461L397.994,370.598L397.836,370.699L397.692,370.742L397.526,370.742L397.368,370.692L397.217,370.605L397.094,370.476L397.015,370.332L397.008,370.303L397.001,370.238L396.993,370.116L396.986,369.928L396.979,369.676L396.979,369.374L396.972,369L396.972,368.596L396.972,368.222L396.972,367.898L396.972,367.632L396.965,367.408L396.965,367.221L396.95,367.07L396.943,366.94L396.921,366.84L396.9,366.746L396.878,366.667L396.842,366.595L396.806,366.516L396.763,366.429L396.59,366.163L396.367,365.932L396.108,365.738L395.827,365.594L395.517,365.508L395.193,365.472L395.157,365.472L394.848,365.5L394.553,365.587L394.272,365.731L394.02,365.918L393.797,366.148L393.609,366.415L393.473,366.717L393.458,366.753L393.444,366.796L393.429,366.847L393.422,366.897L393.415,366.962L393.408,367.041L393.401,367.149L393.393,367.279L393.393,367.444L393.386,367.646L393.386,367.891L393.379,368.193L393.379,368.546L393.372,368.647L393.372,369.021L393.365,369.331L393.365,369.597L393.357,369.813L393.357,369.986L393.35,370.123L393.343,370.224L393.336,370.303L393.329,370.36L393.321,370.396L393.307,370.425L393.307,370.432L393.192,370.584L393.041,370.684L392.868,370.742L392.688,370.749L392.573,370.72L392.407,370.634L392.27,370.497L392.22,370.404L392.205,370.382L392.198,370.353L392.191,370.324L392.184,370.281L392.177,370.231L392.169,370.159L392.162,370.065L392.162,369.95L392.162,369.799L392.155,369.619L392.155,369.396L392.155,369.136L392.155,368.827L392.155,368.474L392.155,368.064L392.155,367.596L392.155,367.495L392.155,367.012L392.155,366.588L392.155,366.22L392.155,365.904L392.155,365.637L392.155,365.407L392.162,365.22L392.162,365.061L392.162,364.939L392.169,364.838L392.177,364.766L392.184,364.708L392.191,364.672L392.198,364.636L392.205,364.615L392.213,364.6L392.328,364.435L392.465,364.32L392.645,364.262L392.789,364.248L392.976,364.276L393.134,364.363L393.264,364.492L393.35,364.665L393.357,364.694L393.393,364.809L393.609,364.672L393.955,364.485L394.322,364.356L394.718,364.276L395.15,364.248L395.179,364.248L395.597,364.276" style="fill:white;"/>
        </g>
        <g transform="matrix(0.110141,0,0,0.240352,296.177,180.417)">
            <path d="M400.241,364.276L400.406,364.363L400.543,364.507L400.557,364.528L400.651,364.658L400.658,367.416L400.665,367.948L400.665,368.834L400.658,369.194L400.658,369.756L400.651,369.957L400.651,370.108L400.644,370.216L400.637,370.281L400.637,370.303L400.572,370.432L400.471,370.555L400.349,370.663L400.219,370.728L400.212,370.728L400.089,370.749L399.981,370.749L399.873,370.72L399.845,370.713L399.693,370.634L399.557,370.512L399.485,370.404L399.477,370.382L399.463,370.346L399.456,370.31L399.456,370.245L399.449,370.166L399.441,370.058L399.441,369.928L399.434,369.756L399.434,369.554L399.434,369.309L399.427,369.021L399.427,368.683L399.427,368.287L399.427,367.84L399.42,367.596L399.42,367.034L399.42,366.537L399.42,366.098L399.42,365.724L399.427,365.407L399.427,365.148L399.434,364.953L399.441,364.816L399.449,364.744L399.449,364.737L399.513,364.55L399.629,364.406L399.78,364.305L399.967,364.255L400.046,364.248L400.241,364.276" style="fill:white;"/>
        </g>
        <g transform="matrix(0.114285,0,0,0.255908,321.395,244.533)">
            <circle cx="164.885" cy="90.933" r="0.616" style="fill:white;"/>
        </g>
        <g transform="matrix(0.110141,0,0,0.240352,296.174,180.417)">
            <path d="M403.97,364.255L404.755,364.255L407.145,364.262L407.261,364.363L407.397,364.507L407.484,364.68L407.513,364.788L407.52,364.874L407.513,364.953L407.484,365.04L407.433,365.14L407.347,365.263L407.239,365.407L407.088,365.594L407.045,365.644L406.951,365.752L406.821,365.911L406.663,366.098L406.476,366.321L406.267,366.566L406.044,366.832L405.806,367.12L405.561,367.408L405.317,367.704L405.223,367.819L403.819,369.489L405.446,369.511L405.813,369.511L406.13,369.518L406.389,369.518L406.605,369.525L406.778,369.532L406.915,369.54L407.023,369.547L407.109,369.561L407.167,369.576L407.217,369.597L407.253,369.626L407.325,369.698L407.426,369.842L407.477,369.993L407.484,370.166L407.484,370.188L407.469,370.31L407.448,370.396L407.39,370.483L407.376,370.497L407.297,370.591L407.203,370.663L407.174,370.684L407.153,370.692L407.131,370.706L407.095,370.713L407.052,370.72L406.994,370.728L406.908,370.735L406.8,370.735L406.663,370.742L406.497,370.742L406.289,370.742L406.037,370.749L405.734,370.749L405.381,370.749L404.978,370.749L404.741,370.749L404.287,370.749L403.891,370.756L403.553,370.756L403.265,370.749L403.02,370.749L402.825,370.749L402.66,370.742L402.53,370.742L402.437,370.735L402.365,370.728L402.314,370.72L402.285,370.713L402.12,370.627L401.997,370.49L401.918,370.324L401.889,370.137L401.897,370.022L401.918,369.921L401.925,369.892L401.954,369.856L402.019,369.777L402.113,369.655L402.242,369.496L402.401,369.302L402.581,369.079L402.782,368.827L403.013,368.553L403.25,368.265L403.509,367.956L403.761,367.653L404.021,367.336L404.273,367.034L404.517,366.746L404.733,366.48L404.935,366.235L405.115,366.026L405.266,365.839L405.389,365.695L405.475,365.58L405.533,365.508L405.554,365.486L405.518,365.486L405.432,365.479L405.295,365.479L405.115,365.472L404.892,365.472L404.64,365.472L404.352,365.472L404.049,365.472L403.97,365.472L403.596,365.472L403.286,365.472L403.027,365.464L402.811,365.464L402.638,365.457L402.501,365.45L402.386,365.443L402.307,365.428L402.242,365.414L402.192,365.392L402.149,365.364L402.113,365.335L402.084,365.306L401.976,365.169L401.911,365.004L401.889,364.824L401.918,364.658L401.933,364.615L401.983,364.528L402.069,364.435L402.17,364.341L402.257,364.284L402.3,364.262L402.444,364.262L402.595,364.255L403.97,364.255" style="fill:white;"/>
        </g>
        <g transform="matrix(0.110141,0,0,0.240352,296.46,180.417)">
            <path d="M413.287,366.94L425.757,366.94" style="fill:rgb(219,219,219);fill-opacity:0;fill-rule:nonzero;stroke:rgb(219,219,219);stroke-width:8.5px;stroke-miterlimit:4;"/>
        </g>
        <g transform="matrix(0.110141,0,0,0.240352,296.174,180.417)">
            <circle cx="281.849" cy="349.92" r="2.409" style="fill:rgb(219,219,219);"/>
        </g>
        <g transform="matrix(0.110141,0,0,0.240352,296.174,180.417)">
            <circle cx="289.049" cy="349.92" r="2.409" style="fill:rgb(219,219,219);"/>
        </g>
        <g transform="matrix(0.110141,0,0,0.240352,296.174,180.417)">
            <circle cx="296.249" cy="349.92" r="2.409" style="fill:rgb(219,219,219);"/>
        </g>
        <g transform="matrix(0.110141,0,0,0.240352,296.174,180.417)">
            <circle cx="303.449" cy="349.92" r="2.409" style="fill:rgb(219,219,219);"/>
        </g>
        <g transform="matrix(0.110141,0,0,0.240352,296.174,180.417)">
            <circle cx="310.649" cy="349.92" r="2.409" style="fill:rgb(219,219,219);"/>
        </g>
        <g transform="matrix(0.110141,0,0,0.240352,296.174,180.417)">
            <circle cx="317.849" cy="349.92" r="2.409" style="fill:rgb(219,219,219);"/>
        </g>
        <g transform="matrix(0.110141,0,0,0.240352,296.174,180.417)">
            <circle cx="361.049" cy="349.92" r="2.409" style="fill:rgb(219,219,219);"/>
        </g>
        <g transform="matrix(0.110141,0,0,0.240352,296.174,180.417)">
            <circle cx="353.849" cy="349.92" r="2.409" style="fill:rgb(219,219,219);"/>
        </g>
        <g transform="matrix(0.110141,0,0,0.240352,296.174,180.417)">
            <circle cx="346.649" cy="349.92" r="2.409" style="fill:rgb(219,219,219);"/>
        </g>
        <g transform="matrix(0.110141,0,0,0.240352,296.174,180.417)">
            <circle cx="339.449" cy="349.92" r="2.409" style="fill:rgb(219,219,219);"/>
        </g>
        <g transform="matrix(0.110141,0,0,0.240352,296.174,180.417)">
            <circle cx="332.249" cy="349.92" r="2.409" style="fill:rgb(219,219,219);"/>
        </g>
        <g transform="matrix(0.110141,0,0,0.240352,296.174,180.417)">
            <circle cx="325.049" cy="349.92" r="2.409" style="fill:rgb(219,219,219);"/>
        </g>
        <g transform="matrix(0.110141,0,0,0.240352,296.174,180.417)">
            <circle cx="252.322" cy="357.08" r="2.551" style="fill:rgb(219,219,219);"/>
        </g>
        <g transform="matrix(0.110141,0,0,0.240352,296.174,180.417)">
            <circle cx="252.322" cy="349.88" r="2.551" style="fill:rgb(219,219,219);"/>
        </g>
        <g transform="matrix(0.110141,0,0,0.240352,287.415,187.808)">
            <g transform="matrix(1,0,0,1,79.5308,-30.7489)">
                <path d="M251.553,341.928L247.017,341.928L247.017,337.392L251.553,337.392L251.553,341.928" style="fill:rgb(219,219,219);"/>
            </g>
            <g transform="matrix(1,0,0,1,79.5308,-30.7489)">
                <path d="M251.553,324.352L247.017,324.352L247.017,319.816L251.553,319.816L251.553,324.352" style="fill:rgb(219,219,219);"/>
            </g>
            <g transform="matrix(1,0,0,1,79.5308,-30.7489)">
                <circle cx="256.946" cy="323.787" r="1.772" style="fill:rgb(219,219,219);"/>
            </g>
        </g>
        <g transform="matrix(0.110141,0,0,0.240352,296.174,180.417)">
            <circle cx="256.946" cy="337.96" r="1.772" style="fill:rgb(219,219,219);"/>
        </g>
        <g transform="matrix(0.110141,0,0,0.240352,296.174,180.417)">
            <path d="M258.797,366.94L271.274,366.94" style="fill:rgb(219,219,219);fill-opacity:0;fill-rule:nonzero;stroke:rgb(219,219,219);stroke-width:8.5px;stroke-miterlimit:4;"/>
        </g>
        <g transform="matrix(0.110141,0,0,0.240352,287.415,187.808)">
            <g transform="matrix(1,0,0,1,79.5308,-30.7489)">
                <path d="M422.784,306.677L422.784,304.128L428.45,304.128L428.45,306.677L422.784,306.677" style="fill:rgb(219,219,219);"/>
            </g>
            <g transform="matrix(1,0,0,1,79.5308,-30.7489)">
                <path d="M422.784,310.277L422.784,307.728L428.45,307.728L428.45,310.277L422.784,310.277" style="fill:rgb(219,219,219);"/>
            </g>
            <g transform="matrix(1,0,0,1,79.5308,-30.7489)">
                <path d="M422.784,313.877L422.784,311.328L428.45,311.328L428.45,313.877L422.784,313.877" style="fill:rgb(219,219,219);"/>
            </g>
            <g transform="matrix(1,0,0,1,79.5308,-30.7489)">
                <path d="M422.784,317.476L422.784,314.928L428.45,314.928L428.45,317.476L422.784,317.476" style="fill:rgb(219,219,219);"/>
            </g>
            <g transform="matrix(1,0,0,1,79.5308,-30.7489)">
                <path d="M422.784,321.076L422.784,318.528L428.45,318.528L428.45,321.076L422.784,321.076" style="fill:rgb(219,219,219);"/>
            </g>
            <g transform="matrix(1,0,0,1,79.5308,-30.7489)">
                <path d="M422.784,324.676L422.784,322.128L428.45,322.128L428.45,324.676L422.784,324.676" style="fill:rgb(219,219,219);"/>
            </g>
            <g transform="matrix(1,0,0,1,79.5308,-30.7489)">
                <path d="M422.784,328.276L422.784,325.728L428.45,325.728L428.45,328.276L422.784,328.276" style="fill:rgb(219,219,219);"/>
            </g>
            <g transform="matrix(1,0,0,1,79.5308,-30.7489)">
                <path d="M422.784,331.876L422.784,329.328L428.45,329.328L428.45,331.876L422.784,331.876" style="fill:rgb(219,219,219);"/>
            </g>
            <g transform="matrix(1,0,0,1,79.5308,-30.7489)">
                <path d="M422.784,335.476L422.784,332.928L428.45,332.928L428.45,335.476L422.784,335.476" style="fill:rgb(219,219,219);"/>
            </g>
            <g transform="matrix(1,0,0,1,79.5308,-30.7489)">
                <path d="M422.784,339.076L422.784,336.528L428.45,336.528L428.45,339.076L422.784,339.076" style="fill:rgb(219,219,219);"/>
            </g>
            <g transform="matrix(1,0,0,1,79.5308,-30.7489)">
                <path d="M422.784,342.676L422.784,340.128L428.45,340.128L428.45,342.676L422.784,342.676" style="fill:rgb(219,219,219);"/>
            </g>
            <g transform="matrix(1,0,0,1,79.5308,-30.7489)">
                <path d="M422.784,346.276L422.784,343.728L428.45,343.728L428.45,346.276L422.784,346.276" style="fill:rgb(219,219,219);"/>
            </g>
            <g transform="matrix(1,0,0,1,79.5308,-30.7489)">
                <path d="M422.784,349.876L422.784,347.328L428.45,347.328L428.45,349.876L422.784,349.876" style="fill:rgb(219,219,219);"/>
            </g>
            <g transform="matrix(1,0,0,1,79.5308,-30.7489)">
                <path d="M422.784,353.476L422.784,350.928L428.45,350.928L428.45,353.476L422.784,353.476" style="fill:rgb(219,219,219);"/>
            </g>
            <g transform="matrix(1,0,0,1,79.5308,-30.7489)">
                <path d="M414.605,359.712L414.605,354.045L417.153,354.045L417.153,359.712L414.605,359.712" style="fill:rgb(219,219,219);"/>
            </g>
            <g transform="matrix(1,0,0,1,79.5308,-30.7489)">
                <path d="M411.005,359.712L411.005,354.045L413.553,354.045L413.553,359.712L411.005,359.712" style="fill:rgb(219,219,219);"/>
            </g>
            <g transform="matrix(1,0,0,1,79.5308,-30.7489)">
                <path d="M407.405,359.712L407.405,354.045L409.953,354.045L409.953,359.712L407.405,359.712" style="fill:rgb(219,219,219);"/>
            </g>
            <g transform="matrix(1,0,0,1,79.5308,-30.7489)">
                <path d="M403.805,359.712L403.805,354.045L406.353,354.045L406.353,359.712L403.805,359.712" style="fill:rgb(219,219,219);"/>
            </g>
            <g transform="matrix(1,0,0,1,79.5308,-30.7489)">
                <path d="M400.19,359.712L400.19,354.045L402.746,354.045L402.746,359.712L400.19,359.712" style="fill:rgb(219,219,219);"/>
            </g>
            <g transform="matrix(1,0,0,1,79.5308,-30.7489)">
                <path d="M396.59,359.712L396.59,354.045L399.146,354.045L399.146,359.712L396.59,359.712" style="fill:rgb(219,219,219);"/>
            </g>
            <g transform="matrix(1,0,0,1,79.5308,-30.7489)">
                <path d="M392.99,359.712L392.99,354.045L395.546,354.045L395.546,359.712L392.99,359.712" style="fill:rgb(219,219,219);"/>
            </g>
            <g transform="matrix(1,0,0,1,79.5308,-30.7489)">
                <path d="M389.39,359.712L389.39,354.045L391.946,354.045L391.946,359.712L389.39,359.712" style="fill:rgb(219,219,219);"/>
            </g>
            <g transform="matrix(1,0,0,1,79.5308,-30.7489)">
                <path d="M385.79,359.712L385.79,354.045L388.346,354.045L388.346,359.712L385.79,359.712" style="fill:rgb(219,219,219);"/>
            </g>
            <g transform="matrix(1,0,0,1,79.5308,-30.7489)">
                <path d="M382.19,359.712L382.19,354.045L384.746,354.045L384.746,359.712L382.19,359.712" style="fill:rgb(219,219,219);"/>
            </g>
            <g transform="matrix(1,0,0,1,79.5308,-30.7489)">
                <path d="M370.908,353.476L370.908,350.928L376.581,350.928L376.581,353.476L370.908,353.476" style="fill:rgb(219,219,219);"/>
            </g>
            <g transform="matrix(1,0,0,1,79.5308,-30.7489)">
                <path d="M370.908,349.876L370.908,347.328L376.581,347.328L376.581,349.876L370.908,349.876" style="fill:rgb(219,219,219);"/>
            </g>
            <g transform="matrix(1,0,0,1,79.5308,-30.7489)">
                <path d="M370.908,346.276L370.908,343.728L376.581,343.728L376.581,346.276L370.908,346.276" style="fill:rgb(219,219,219);"/>
            </g>
            <g transform="matrix(1,0,0,1,79.5308,-30.7489)">
                <path d="M370.908,342.676L370.908,340.128L376.581,340.128L376.581,342.676L370.908,342.676" style="fill:rgb(219,219,219);"/>
            </g>
            <g transform="matrix(1,0,0,1,79.5308,-30.7489)">
                <path d="M370.908,339.076L370.908,336.528L376.581,336.528L376.581,339.076L370.908,339.076" style="fill:rgb(219,219,219);"/>
            </g>
            <g transform="matrix(1,0,0,1,79.5308,-30.7489)">
                <path d="M370.908,335.476L370.908,332.928L376.581,332.928L376.581,335.476L370.908,335.476" style="fill:rgb(219,219,219);"/>
            </g>
            <g transform="matrix(1,0,0,1,79.5308,-30.7489)">
                <path d="M370.908,331.876L370.908,329.328L376.581,329.328L376.581,331.876L370.908,331.876" style="fill:rgb(219,219,219);"/>
            </g>
            <g transform="matrix(1,0,0,1,79.5308,-30.7489)">
                <path d="M370.908,328.276L370.908,325.728L376.581,325.728L376.581,328.276L370.908,328.276" style="fill:rgb(219,219,219);"/>
            </g>
            <g transform="matrix(1,0,0,1,79.5308,-30.7489)">
                <path d="M370.908,324.676L370.908,322.128L376.581,322.128L376.581,324.676L370.908,324.676" style="fill:rgb(219,219,219);"/>
            </g>
            <g transform="matrix(1,0,0,1,79.5308,-30.7489)">
                <path d="M370.908,321.076L370.908,318.528L376.581,318.528L376.581,321.076L370.908,321.076" style="fill:rgb(219,219,219);"/>
            </g>
            <g transform="matrix(1,0,0,1,79.5308,-30.7489)">
                <path d="M370.908,317.476L370.908,314.928L376.581,314.928L376.581,317.476L370.908,317.476" style="fill:rgb(219,219,219);"/>
            </g>
            <g transform="matrix(1,0,0,1,79.5308,-30.7489)">
                <path d="M370.908,313.877L370.908,311.328L376.581,311.328L376.581,313.877L370.908,313.877" style="fill:rgb(219,219,219);"/>
            </g>
            <g transform="matrix(1,0,0,1,79.5308,-30.7489)">
                <path d="M370.908,310.277L370.908,307.728L376.581,307.728L376.581,310.277L370.908,310.277" style="fill:rgb(219,219,219);"/>
            </g>
            <g transform="matrix(1,0,0,1,79.5308,-30.7489)">
                <path d="M370.908,306.677L370.908,304.128L376.581,304.128L376.581,306.677L370.908,306.677" style="fill:rgb(219,219,219);"/>
            </g>
        </g>
        <g transform="matrix(0.110141,0,0,0.240352,296.174,180.417)">
            <circle cx="261.638" cy="337.889" r="1.304" style="fill:rgb(194,194,194);"/>
        </g>
        <g transform="matrix(0.110141,0,0,0.240352,296.174,180.417)">
            <circle cx="261.638" cy="333.921" r="1.304" style="fill:rgb(194,194,194);"/>
        </g>
        <g transform="matrix(0.110141,0,0,0.240352,296.174,180.417)">
            <circle cx="434.551" cy="354.897" r="1.304" style="fill:rgb(194,194,194);"/>
        </g>
        <g transform="matrix(0.110141,0,0,0.240352,296.174,180.417)">
            <circle cx="434.551" cy="351.212" r="1.304" style="fill:rgb(194,194,194);"/>
        </g>
        <g transform="matrix(0.110141,0,0,0.240352,296.46,180.417)">
            <path d="M413.287,366.94L425.757,366.94" style="fill:rgb(75,75,75);fill-opacity:0;fill-rule:nonzero;stroke:rgb(75,75,75);stroke-width:6.24px;stroke-miterlimit:4;"/>
        </g>
        <g transform="matrix(0.110141,0,0,0.240352,296.174,180.417)">
            <circle cx="261.638" cy="337.889" r="0.85" style="fill:rgb(75,75,75);"/>
        </g>
        <g transform="matrix(0.110141,0,0,0.240352,296.174,180.417)">
            <circle cx="261.638" cy="333.921" r="0.85" style="fill:rgb(75,75,75);"/>
        </g>
        <g transform="matrix(0.110141,0,0,0.240352,296.174,180.417)">
            <circle cx="434.551" cy="354.897" r="0.85" style="fill:rgb(75,75,75);"/>
        </g>
        <g transform="matrix(0.110141,0,0,0.240352,296.174,180.417)">
            <circle cx="434.551" cy="351.212" r="0.85" style="fill:rgb(75,75,75);"/>
        </g>
        <g transform="matrix(0.110141,0,0,0.240352,296.174,180.417)">
            <circle cx="435.585" cy="334.857" r="0.921" style="fill:rgb(75,75,75);"/>
        </g>
        <g transform="matrix(0.110141,0,0,0.240352,296.174,180.417)">
            <circle cx="435.585" cy="331.257" r="0.921" style="fill:rgb(75,75,75);"/>
        </g>
        <g transform="matrix(0.110141,0,0,0.240352,296.174,180.417)">
            <circle cx="435.585" cy="327.657" r="0.921" style="fill:rgb(75,75,75);"/>
        </g>
        <g transform="matrix(0.110141,0,0,0.240352,296.174,180.417)">
            <circle cx="435.585" cy="324.057" r="0.921" style="fill:rgb(75,75,75);"/>
        </g>
        <g transform="matrix(0.110141,0,0,0.240352,296.174,180.417)">
            <circle cx="435.585" cy="320.457" r="0.921" style="fill:rgb(75,75,75);"/>
        </g>
        <g transform="matrix(0.110141,0,0,0.240352,296.174,180.417)">
            <circle cx="435.585" cy="316.857" r="0.921" style="fill:rgb(75,75,75);"/>
        </g>
        <g transform="matrix(0.110141,0,0,0.240352,296.174,180.417)">
            <circle cx="435.585" cy="313.257" r="0.921" style="fill:rgb(75,75,75);"/>
        </g>
        <g transform="matrix(0.110141,0,0,0.240352,296.174,180.417)">
            <circle cx="435.585" cy="309.657" r="0.921" style="fill:rgb(75,75,75);"/>
        </g>
        <g transform="matrix(0.110141,0,0,0.240352,296.174,180.417)">
            <circle cx="435.585" cy="306.057" r="0.921" style="fill:rgb(75,75,75);"/>
        </g>
        <g transform="matrix(0.110141,0,0,0.240352,296.064,180.417)">
            <circle cx="276.378" cy="298.488" r="1.559" style="fill:rgb(75,75,75);"/>
        </g>
        <g transform="matrix(0.110141,0,0,0.240352,294.526,180.417)">
            <circle cx="276.378" cy="298.488" r="1.559" style="fill:rgb(75,75,75);"/>
        </g>
        <g transform="matrix(0.110141,0,0,0.240352,296.174,180.417)">
            <circle cx="252.322" cy="357.08" r="1.417" style="fill:rgb(75,75,75);"/>
        </g>
        <g transform="matrix(0.110141,0,0,0.240352,296.174,180.417)">
            <circle cx="252.322" cy="349.88" r="1.417" style="fill:rgb(75,75,75);"/>
        </g>
        <g transform="matrix(0.110141,0,0,0.240352,296.174,180.417)">
            <circle cx="256.946" cy="323.787" r="1.205" style="fill:rgb(75,75,75);"/>
        </g>
        <g transform="matrix(0.110141,0,0,0.240352,296.174,180.417)">
            <circle cx="256.946" cy="337.96" r="1.205" style="fill:rgb(75,75,75);"/>
        </g>
        <g transform="matrix(0.110141,0,0,0.240352,296.174,180.417)">
            <path d="M258.797,366.94L271.274,366.94" style="fill:rgb(75,75,75);fill-opacity:0;fill-rule:nonzero;stroke:rgb(75,75,75);stroke-width:6.24px;stroke-miterlimit:4;"/>
        </g>
        <g transform="matrix(0.110141,0,0,0.240352,322.083,245.96)">
            <path d="M103.217,11.103L103.217,17.626L124.054,17.626L124.054,72.224L48.367,72.224L48.367,17.626L69.204,17.626L69.204,11.258" style="fill:rgb(93,93,93);"/>
        </g>
        <g transform="matrix(0.127743,0,0,0.322257,320.567,241.508)">
            <path d="M55.402,34.453L117.026,34.453L117.026,66.212L55.402,66.212L55.402,34.453" style="fill:rgb(48,48,48);"/>
        </g>
        <g transform="matrix(0.110141,0,0,0.240352,322.985,247.331)">
            <path d="M42.306,45.145L42.306,30.668L47.859,21.969L57.1,21.969L42.306,45.145Z" style="fill:rgb(62,62,62);"/>
        </g>
        <g transform="matrix(0.110141,0,0,0.240352,322.985,247.331)">
            <path d="M42.306,60.524L42.306,53.657L62.533,21.969L66.916,21.969L42.306,60.524Z" style="fill:rgb(62,62,62);"/>
        </g>
        <g transform="matrix(0.110141,0,0,0.273442,322.083,245.524)">
            <path d="M189.674,29.621L189.674,11.758L139.217,11.758L139.217,29.621" style="fill:rgb(48,48,48);stroke:rgb(48,48,48);stroke-width:1px;stroke-miterlimit:4;"/>
        </g>
        <g transform="matrix(0.110141,0,0,0.240352,322.083,245.96)">
            <path d="M182.446,27.821L182.446,15.221L175.246,15.221L175.246,24.221L168.046,24.221L168.046,15.221L160.846,15.221L160.846,24.221L153.646,24.221L153.646,15.221L146.446,15.221L146.446,24.221" style="fill:rgb(0,132,132);fill-opacity:0;stroke:rgb(75,75,75);stroke-width:1px;stroke-miterlimit:4;"/>
        </g>
        <g transform="matrix(0.108972,0,0,0.237718,322.245,246.039)">
            <rect x="137.982" y="30.148" width="53.558" height="54.671" style="fill:rgb(228,227,215);"/>
        </g>
        <g transform="matrix(0.110141,0,0,0.240352,322.985,247.331)">
            <path d="M129.799,58.046L129.799,43.569L142.007,24.444L151.248,24.444L129.799,58.046Z" style="fill:rgb(236,235,226);"/>
        </g>
        <g transform="matrix(0.110141,0,0,0.240352,322.985,247.331)">
            <path d="M129.799,73.425L129.799,66.558L156.681,24.444L161.064,24.444L129.799,73.425Z" style="fill:rgb(236,235,226);"/>
        </g>
        <g transform="matrix(0.110141,0,0,0.240352,322.083,245.96)">
            <path d="M190.982,30.188L137.978,30.17" style="fill:none;stroke:rgb(197,195,170);stroke-width:1px;stroke-linecap:butt;stroke-linejoin:miter;"/>
        </g>
        <g transform="matrix(0.110141,0,0,0.240352,322.083,245.96)">
            <path d="M138.722,29.659L138.741,84.221" style="fill:none;stroke:rgb(212,210,191);stroke-width:1.5px;stroke-linecap:butt;stroke-linejoin:miter;"/>
        </g>
    </g>
</svg>
